Eczar-ExtraBold.ufo
<glyph name="hyphen" format="1">
  <advance width="500"/>
  <unicode hex="002D"/>
  <outline>
    <contour>
      <point x="34" y="316" type="line"/>
      <point x="99" y="213" type="line"/>
      <point x="419" y="213" type="line"/>
      <point x="444" y="262" type="line"/>
      <point x="379" y="365" type="line"/>
      <point x="59" y="365" type="line"/>
    </contour>
  </outline>
</glyph>
<glyph name="T" format="1">
  <advance width="692"/>
  <unicode hex="0054"/>
  <outline>
    <contour>
      <point x="242" y="666" type="line"/>
      <point x="242" y="0" type="line"/>
      <point x="452" y="0" type="line"/>
      <point x="452" y="666" type="line"/>
    </contour>
    <contour>
      <point x="147" y="32" type="curve"/>
      <point x="153" y="0" type="line"/>
      <point x="250" y="0" type="line"/>
      <point x="249" y="91" type="line"/>
      <point x="211" y="73"/>
      <point x="175" y="54"/>
    </contour>
    <contour>
      <point x="406" y="79" type="line"/>
      <point x="403" y="0" type="line"/>
      <point x="543" y="0" type="line"/>
      <point x="544" y="55" type="line"/>
    </contour>
    <contour>
      <point x="29" y="419" type="curve"/>
      <point x="135" y="419" type="line"/>
      <point x="160" y="658" type="line"/>
      <point x="7" y="672" type="line"/>
      <point x="2" y="626"/>
      <point x="14" y="486"/>
    </contour>
    <contour>
      <point x="7" y="672" type="curve"/>
      <point x="24" y="558" type="line"/>
      <point x="347" y="595" type="line"/>
      <point x="668" y="558" type="line"/>
      <point x="685" y="672" type="line"/>
      <point x="396" y="666"/>
      <point x="302" y="666"/>
    </contour>
    <contour>
      <point x="532" y="658" type="line"/>
      <point x="557" y="419" type="line"/>
      <point x="664" y="419" type="line"/>
      <point x="678" y="486"/>
      <point x="690" y="626"/>
      <point x="686" y="672" type="curve"/>
    </contour>
    <contour>
      <point x="346" y="0" type="move" name="bottom"/>
    </contour>
    <contour>
      <point x="346" y="325" type="move" name="center"/>
    </contour>
    <contour>
      <point x="346" y="650" type="move" name="top"/>
    </contour>
  </outline>
</glyph>
<glyph name="W" format="1">
  <advance width="1041"/>
  <unicode hex="0057"/>
  <outline>
    <contour>
      <point x="41" y="666" type="line"/>
      <point x="268" y="-18" type="line"/>
      <point x="335" y="-13"/>
      <point x="393" y="-7"/>
      <point x="443" y="2" type="curve"/>
      <point x="397" y="143" type="line"/>
      <point x="360" y="144" type="line"/>
      <point x="355" y="294" type="line"/>
      <point x="254" y="666" type="line"/>
    </contour>
    <contour>
      <point x="-4" y="611" type="line"/>
      <point x="134" y="587" type="line"/>
      <point x="137" y="666" type="line"/>
      <point x="-3" y="666" type="line"/>
    </contour>
    <contour>
      <point x="336" y="37" type="line"/>
      <point x="443" y="2" type="line"/>
      <point x="499" y="185" type="line"/>
      <point x="526" y="314" type="line"/>
      <point x="544" y="315" type="line"/>
      <point x="594" y="487" type="line"/>
      <point x="478" y="535" type="line"/>
    </contour>
    <contour>
      <point x="250" y="666" type="line"/>
      <point x="255" y="575" type="line"/>
      <point x="293" y="593"/>
      <point x="326" y="612"/>
      <point x="354" y="634" type="curve"/>
      <point x="348" y="666" type="line"/>
    </contour>
    <contour>
      <point x="420" y="623" type="line"/>
      <point x="628" y="-18" type="line"/>
      <point x="695" y="-13"/>
      <point x="753" y="-7"/>
      <point x="803" y="2" type="curve"/>
      <point x="765" y="143" type="line"/>
      <point x="723" y="144" type="line"/>
      <point x="715" y="315" type="line"/>
      <point x="615" y="664" type="line"/>
    </contour>
    <contour>
      <point x="695" y="37" type="line"/>
      <point x="803" y="2" type="line"/>
      <point x="995" y="666" type="line"/>
      <point x="865" y="666" type="line"/>
    </contour>
    <contour>
      <point x="753" y="611" type="line"/>
      <point x="891" y="587" type="line"/>
      <point x="894" y="666" type="line"/>
      <point x="754" y="666" type="line"/>
    </contour>
    <contour>
      <point x="941" y="666" type="line"/>
      <point x="946" y="575" type="line"/>
      <point x="984" y="593"/>
      <point x="1017" y="612"/>
      <point x="1045" y="634" type="curve"/>
      <point x="1039" y="666" type="line"/>
    </contour>
    <contour>
      <point x="518" y="650" type="move" name="top"/>
    </contour>
  </outline>
</glyph>
<glyph name="bracketright" format="1">
  <advance width="440"/>
  <unicode hex="005D"/>
  <outline>
    <contour>
      <point x="26" y="-58" type="line"/>
      <point x="32" y="-122" type="line"/>
      <point x="356" y="-122" type="line"/>
      <point x="356" y="712" type="line"/>
      <point x="32" y="712" type="line"/>
      <point x="26" y="648" type="line"/>
      <point x="156" y="610" type="line"/>
      <point x="156" y="-20" type="line"/>
    </contour>
  </outline>
</glyph>
<glyph name="y" format="1">
  <advance width="584"/>
  <unicode hex="0079"/>
  <outline>
    <contour>
      <point x="46" y="-56" type="curve"/>
      <point x="149" y="-234" type="line"/>
      <point x="316" y="-145"/>
      <point x="395" y="-47"/>
      <point x="450" y="92" type="curve"/>
      <point x="499" y="220"/>
      <point x="531" y="361"/>
      <point x="566" y="482" type="curve"/>
      <point x="358" y="482" type="line"/>
      <point x="344" y="385"/>
      <point x="324" y="281"/>
      <point x="305" y="186" type="curve"/>
      <point x="289" y="186" type="line"/>
      <point x="284" y="254" type="line"/>
      <point x="223" y="482" type="line"/>
      <point x="23" y="449" type="line"/>
      <point x="169" y="50" type="line"/>
      <point x="208" y="40"/>
      <point x="242" y="31"/>
      <point x="282" y="22" type="curve"/>
      <point x="206" y="-8"/>
      <point x="127" y="-34"/>
    </contour>
    <contour>
      <point x="-31" y="426" type="line"/>
      <point x="169" y="296" type="line"/>
      <point x="222" y="482" type="line"/>
      <point x="-31" y="482" type="line"/>
    </contour>
    <contour>
      <point x="401" y="482" type="line"/>
      <point x="521" y="392" type="line"/>
      <point x="543" y="401"/>
      <point x="570" y="414"/>
      <point x="588" y="429" type="curve"/>
      <point x="587" y="482" type="line"/>
    </contour>
    <contour>
      <point x="307" y="468" type="move" name="top"/>
    </contour>
  </outline>
</glyph>
<glyph name="bar" format="1">
  <advance width="333"/>
  <unicode hex="007C"/>
  <outline>
    <contour>
      <point x="93" y="735" type="line"/>
      <point x="93" y="-225" type="line"/>
      <point x="239" y="-225" type="line"/>
      <point x="238" y="735" type="line"/>
    </contour>
  </outline>
</glyph>
<glyph name="yen" format="1">
  <advance width="675"/>
  <unicode hex="00A5"/>
  <outline>
    <contour>
      <point x="89" y="272" type="line"/>
      <point x="95" y="235" type="line"/>
      <point x="517" y="235" type="line"/>
      <point x="560" y="274" type="line"/>
      <point x="554" y="311" type="line"/>
      <point x="132" y="311" type="line"/>
    </contour>
    <contour>
      <point x="89" y="154" type="line"/>
      <point x="95" y="117" type="line"/>
      <point x="517" y="117" type="line"/>
      <point x="560" y="156" type="line"/>
      <point x="554" y="193" type="line"/>
      <point x="132" y="193" type="line"/>
    </contour>
    <component base="Y" xOffset="-27"/>
  </outline>
</glyph>
<glyph name="copyright" format="1">
  <advance width="769"/>
  <unicode hex="00A9"/>
  <outline>
    <contour>
      <point x="385" y="-26" type="curve"/>
      <point x="584" y="-26"/>
      <point x="745" y="129"/>
      <point x="745" y="330" type="curve"/>
      <point x="745" y="533"/>
      <point x="580" y="692"/>
      <point x="381" y="692" type="curve"/>
      <point x="182" y="692"/>
      <point x="24" y="533"/>
      <point x="24" y="332" type="curve"/>
      <point x="24" y="129"/>
      <point x="185" y="-26"/>
    </contour>
    <contour>
      <point x="431" y="137" type="curve"/>
      <point x="556" y="208" type="line"/>
      <point x="538" y="255" type="line"/>
      <point x="513" y="247"/>
      <point x="495" y="242"/>
      <point x="468" y="242" type="curve"/>
      <point x="384" y="242"/>
      <point x="339" y="289"/>
      <point x="339" y="351" type="curve"/>
      <point x="339" y="383"/>
      <point x="351" y="426"/>
      <point x="376" y="453" type="curve"/>
      <point x="411" y="427"/>
      <point x="426" y="395"/>
      <point x="441" y="346" type="curve"/>
      <point x="568" y="407" type="line"/>
      <point x="533" y="501"/>
      <point x="469" y="529"/>
      <point x="398" y="529" type="curve"/>
      <point x="283" y="529"/>
      <point x="190" y="454"/>
      <point x="190" y="330" type="curve"/>
      <point x="190" y="189"/>
      <point x="310" y="122"/>
    </contour>
    <contour>
      <point x="382" y="57" type="curve"/>
      <point x="226" y="57"/>
      <point x="109" y="175"/>
      <point x="109" y="329" type="curve"/>
      <point x="109" y="487"/>
      <point x="233" y="609"/>
      <point x="385" y="609" type="curve"/>
      <point x="537" y="609"/>
      <point x="661" y="486"/>
      <point x="661" y="332" type="curve"/>
      <point x="661" y="181"/>
      <point x="542" y="57"/>
    </contour>
  </outline>
</glyph>
<glyph name="dcroat" format="1">
  <advance width="626"/>
  <unicode hex="0111"/>
  <outline>
    <contour>
      <point x="216" y="563" type="line"/>
      <point x="222" y="526" type="line"/>
      <point x="574" y="526" type="line"/>
      <point x="617" y="566" type="line"/>
      <point x="611" y="603" type="line"/>
      <point x="259" y="603" type="line"/>
    </contour>
    <component base="d"/>
  </outline>
</glyph>
<glyph name="macroncomb" format="1">
  <advance width="0"/>
  <unicode hex="0304"/>
  <outline>
    <contour>
      <point x="-168" y="652" type="curve"/>
      <point x="-162" y="568" type="line"/>
      <point x="152" y="568" type="line"/>
      <point x="199" y="618" type="line"/>
      <point x="194" y="677" type="line"/>
      <point x="-55" y="677" type="line"/>
      <point x="-86" y="677"/>
      <point x="-129" y="671"/>
    </contour>
    <contour>
      <point x="1" y="474" type="move" name="_top"/>
    </contour>
  </outline>
</glyph>
<glyph name="tonos" format="1">
  <advance width="265"/>
  <unicode hex="0384"/>
  <outline>
    <contour>
      <point x="77" y="557" type="line"/>
      <point x="146" y="531" type="line"/>
      <point x="257" y="732" type="line"/>
      <point x="253" y="770" type="line"/>
      <point x="229" y="789"/>
      <point x="170" y="811"/>
      <point x="126" y="803" type="curve"/>
    </contour>
    <contour>
      <point x="150" y="474" type="move" name="_top"/>
    </contour>
  </outline>
</glyph>
<glyph name="dieresistonos" format="1">
  <advance width="265"/>
  <unicode hex="0385"/>
  <outline>
    <contour>
      <point x="88" y="551" type="line"/>
      <point x="164" y="531" type="line"/>
      <point x="251" y="735" type="line"/>
      <point x="247" y="773" type="line"/>
      <point x="223" y="792"/>
      <point x="163" y="811"/>
      <point x="114" y="803" type="curve"/>
    </contour>
    <contour>
      <point x="-33" y="548" type="curve"/>
      <point x="12" y="572"/>
      <point x="41" y="607"/>
      <point x="57" y="654" type="curve"/>
      <point x="43" y="701"/>
      <point x="-1" y="739"/>
      <point x="-50" y="760" type="curve"/>
      <point x="-98" y="733"/>
      <point x="-134" y="694"/>
      <point x="-143" y="637" type="curve"/>
      <point x="-119" y="594"/>
      <point x="-84" y="565"/>
    </contour>
    <contour>
      <point x="370" y="548" type="curve"/>
      <point x="415" y="572"/>
      <point x="444" y="607"/>
      <point x="460" y="654" type="curve"/>
      <point x="446" y="701"/>
      <point x="402" y="739"/>
      <point x="353" y="760" type="curve"/>
      <point x="305" y="733"/>
      <point x="269" y="694"/>
      <point x="260" y="637" type="curve"/>
      <point x="284" y="594"/>
      <point x="319" y="565"/>
    </contour>
    <contour>
      <point x="152" y="475" type="move" name="_top"/>
    </contour>
  </outline>
</glyph>
<glyph name="Gamma" format="1">
  <advance width="620"/>
  <unicode hex="0393"/>
  <outline>
    <contour>
      <point x="107" y="666" type="line"/>
      <point x="107" y="0" type="line"/>
      <point x="317" y="0" type="line"/>
      <point x="317" y="666" type="line"/>
    </contour>
    <contour>
      <point x="22" y="32" type="curve"/>
      <point x="28" y="0" type="line"/>
      <point x="122" y="0" type="line"/>
      <point x="121" y="91" type="line"/>
      <point x="83" y="73"/>
      <point x="50" y="54"/>
    </contour>
    <contour>
      <point x="303" y="79" type="line"/>
      <point x="300" y="0" type="line"/>
      <point x="440" y="0" type="line"/>
      <point x="441" y="55" type="line"/>
    </contour>
    <contour>
      <point x="31" y="611" type="line"/>
      <point x="161" y="589" type="line"/>
      <point x="163" y="666" type="line"/>
      <point x="32" y="666" type="line"/>
    </contour>
    <contour>
      <point x="275" y="570" type="line"/>
      <point x="599" y="547" type="line"/>
      <point x="612" y="666" type="line"/>
      <point x="200" y="666" type="line"/>
    </contour>
    <contour>
      <point x="437" y="657" type="line"/>
      <point x="476" y="451" type="line"/>
      <point x="591" y="451" type="line"/>
      <point x="606" y="520"/>
      <point x="614" y="620"/>
      <point x="612" y="666" type="curve"/>
    </contour>
  </outline>
</glyph>
<glyph name="Iota" format="1">
  <advance width="428"/>
  <unicode hex="0399"/>
  <outline>
    <component base="I"/>
    <contour>
      <point x="5" y="343" type="move" name="left"/>
    </contour>
    <contour>
      <point x="213" y="650" type="move" name="top"/>
    </contour>
  </outline>
</glyph>
<glyph name="Xi" format="1">
  <advance width="723"/>
  <unicode hex="039E"/>
  <outline>
    <contour>
      <point x="80" y="137" type="line"/>
      <point x="63" y="0" type="line"/>
      <point x="661" y="0" type="line"/>
      <point x="644" y="137" type="line"/>
      <point x="362" y="120" type="line"/>
    </contour>
    <contour>
      <point x="63" y="0" type="curve"/>
      <point x="242" y="8" type="line"/>
      <point x="166" y="257" type="line"/>
      <point x="51" y="248" type="line"/>
      <point x="48" y="181"/>
      <point x="53" y="73"/>
    </contour>
    <contour>
      <point x="85" y="419" type="curve"/>
      <point x="191" y="419" type="line"/>
      <point x="216" y="658" type="line"/>
      <point x="63" y="672" type="line"/>
      <point x="58" y="626"/>
      <point x="69" y="486"/>
    </contour>
    <contour>
      <point x="209" y="276" type="line"/>
      <point x="515" y="267" type="line"/>
      <point x="515" y="407" type="line"/>
      <point x="209" y="388" type="line"/>
    </contour>
    <contour>
      <point x="482" y="8" type="line"/>
      <point x="661" y="0" type="line"/>
      <point x="670" y="73"/>
      <point x="675" y="181"/>
      <point x="673" y="248" type="curve"/>
      <point x="558" y="257" type="line"/>
    </contour>
    <contour>
      <point x="63" y="672" type="curve"/>
      <point x="79" y="538" type="line"/>
      <point x="361" y="555" type="line"/>
      <point x="644" y="538" type="line"/>
      <point x="661" y="672" type="line"/>
      <point x="408" y="666"/>
      <point x="324" y="666"/>
    </contour>
    <contour>
      <point x="507" y="658" type="line"/>
      <point x="532" y="419" type="line"/>
      <point x="639" y="419" type="line"/>
      <point x="653" y="486"/>
      <point x="664" y="626"/>
      <point x="661" y="672" type="curve"/>
    </contour>
  </outline>
</glyph>
<glyph name="Pi" format="1">
  <advance width="847"/>
  <unicode hex="03A0"/>
  <outline>
    <contour>
      <point x="526" y="666" type="line"/>
      <point x="526" y="0" type="line"/>
      <point x="736" y="0" type="line"/>
      <point x="736" y="666" type="line"/>
    </contour>
    <contour>
      <point x="22" y="32" type="curve"/>
      <point x="28" y="0" type="line"/>
      <point x="122" y="0" type="line"/>
      <point x="121" y="91" type="line"/>
      <point x="83" y="73"/>
      <point x="50" y="54"/>
    </contour>
    <contour>
      <point x="268" y="79" type="line"/>
      <point x="265" y="0" type="line"/>
      <point x="405" y="0" type="line"/>
      <point x="406" y="55" type="line"/>
    </contour>
    <contour>
      <point x="441" y="32" type="curve"/>
      <point x="447" y="0" type="line"/>
      <point x="541" y="0" type="line"/>
      <point x="540" y="91" type="line"/>
      <point x="502" y="73"/>
      <point x="469" y="54"/>
    </contour>
    <contour>
      <point x="107" y="666" type="line"/>
      <point x="107" y="0" type="line"/>
      <point x="317" y="0" type="line"/>
      <point x="317" y="666" type="line"/>
    </contour>
    <contour>
      <point x="30" y="611" type="line"/>
      <point x="168" y="587" type="line"/>
      <point x="171" y="666" type="line"/>
      <point x="31" y="666" type="line"/>
    </contour>
    <contour>
      <point x="687" y="79" type="line"/>
      <point x="684" y="0" type="line"/>
      <point x="824" y="0" type="line"/>
      <point x="825" y="55" type="line"/>
    </contour>
    <contour>
      <point x="286" y="666" type="line"/>
      <point x="286" y="566" type="line"/>
      <point x="540" y="566" type="line"/>
      <point x="540" y="666" type="line"/>
    </contour>
    <contour>
      <point x="721" y="666" type="line"/>
      <point x="722" y="575" type="line"/>
      <point x="760" y="593"/>
      <point x="793" y="612"/>
      <point x="821" y="634" type="curve"/>
      <point x="815" y="666" type="line"/>
    </contour>
  </outline>
</glyph>
<glyph name="alpha" format="1">
  <advance width="611"/>
  <unicode hex="03B1"/>
  <outline>
    <contour>
      <point x="202" y="-14" type="curve"/>
      <point x="273" y="-14"/>
      <point x="334" y="34"/>
      <point x="399" y="141" type="curve"/>
      <point x="339" y="108" type="line"/>
      <point x="407" y="108" type="line"/>
      <point x="371" y="184" type="line"/>
      <point x="379" y="68"/>
      <point x="430" y="-14"/>
      <point x="495" y="-14" type="curve"/>
      <point x="543" y="-14"/>
      <point x="602" y="44"/>
      <point x="620" y="108" type="curve"/>
      <point x="599" y="154" type="line"/>
      <point x="453" y="138" type="line"/>
      <point x="460" y="103" type="line"/>
      <point x="568" y="453" type="line"/>
      <point x="538" y="483"/>
      <point x="469" y="506"/>
      <point x="411" y="506" type="curve"/>
      <point x="367" y="471" type="line"/>
      <point x="356" y="335" type="line"/>
      <point x="358" y="305" type="line"/>
      <point x="353" y="279" type="line" smooth="yes"/>
      <point x="342" y="223"/>
      <point x="282" y="187"/>
      <point x="200" y="187" type="curve"/>
      <point x="171" y="187"/>
      <point x="146" y="191"/>
      <point x="118" y="199" type="curve"/>
      <point x="111" y="206"/>
      <point x="109" y="213"/>
      <point x="109" y="224" type="curve"/>
      <point x="109" y="271"/>
      <point x="164" y="302"/>
      <point x="245" y="302" type="curve"/>
      <point x="295" y="302"/>
      <point x="332" y="294"/>
      <point x="365" y="276" type="curve"/>
      <point x="366" y="331" type="line"/>
      <point x="350" y="438"/>
      <point x="287" y="505"/>
      <point x="203" y="505" type="curve"/>
      <point x="101" y="505"/>
      <point x="15" y="382"/>
      <point x="15" y="238" type="curve"/>
      <point x="15" y="96"/>
      <point x="96" y="-14"/>
    </contour>
    <contour>
      <point x="240" y="0" type="move" name="bottom"/>
    </contour>
    <contour>
      <point x="315" y="474" type="move" name="top"/>
    </contour>
  </outline>
</glyph>
<glyph name="gamma" format="1">
  <advance width="564"/>
  <unicode hex="03B3"/>
  <outline>
    <contour>
      <point x="155" y="-193" type="line"/>
      <point x="201" y="-222" type="line"/>
      <point x="255" y="-222"/>
      <point x="329" y="-211"/>
      <point x="373" y="-196" type="curve"/>
      <point x="322" y="13" type="line"/>
      <point x="315" y="-30" type="line"/>
      <point x="452" y="61"/>
      <point x="544" y="241"/>
      <point x="544" y="391" type="curve"/>
      <point x="544" y="414"/>
      <point x="542" y="436"/>
      <point x="538" y="461" type="curve"/>
      <point x="500" y="484"/>
      <point x="445" y="496"/>
      <point x="375" y="498" type="curve"/>
      <point x="347" y="450" type="line"/>
      <point x="357" y="410"/>
      <point x="362" y="377"/>
      <point x="362" y="339" type="curve"/>
      <point x="362" y="209"/>
      <point x="305" y="86"/>
      <point x="228" y="57" type="curve"/>
      <point x="255" y="67" type="line"/>
      <point x="302" y="219" type="line"/>
      <point x="289" y="403"/>
      <point x="231" y="500"/>
      <point x="134" y="500" type="curve"/>
      <point x="79" y="500"/>
      <point x="22" y="457"/>
      <point x="-10" y="394" type="curve"/>
      <point x="10" y="331" type="line"/>
      <point x="108" y="340" type="line"/>
      <point x="125" y="295"/>
      <point x="143" y="237"/>
      <point x="158" y="173" type="curve"/>
      <point x="211" y="-47" type="line"/>
      <point x="207" y="27" type="line"/>
    </contour>
    <contour>
      <point x="199" y="55" type="line"/>
      <point x="218" y="20" type="line"/>
      <point x="289" y="68" type="line"/>
      <point x="231" y="101" type="line"/>
    </contour>
  </outline>
</glyph>
<glyph name="delta" format="1">
  <advance width="511"/>
  <unicode hex="03B4"/>
  <outline>
    <contour>
      <point x="252" y="-20" type="curve"/>
      <point x="397" y="-20"/>
      <point x="496" y="88"/>
      <point x="496" y="244" type="curve"/>
      <point x="496" y="482"/>
      <point x="174" y="504"/>
      <point x="140" y="556" type="curve"/>
      <point x="146" y="571"/>
      <point x="171" y="580"/>
      <point x="205" y="580" type="curve"/>
      <point x="263" y="580"/>
      <point x="338" y="552"/>
      <point x="423" y="500" type="curve"/>
      <point x="462" y="512" type="line"/>
      <point x="478" y="546"/>
      <point x="495" y="618"/>
      <point x="495" y="655" type="curve"/>
      <point x="466" y="677"/>
      <point x="420" y="700"/>
      <point x="376" y="713" type="curve"/>
      <point x="336" y="727"/>
      <point x="287" y="735"/>
      <point x="245" y="735" type="curve"/>
      <point x="133" y="735"/>
      <point x="59" y="672"/>
      <point x="59" y="577" type="curve"/>
      <point x="59" y="494"/>
      <point x="108" y="423"/>
      <point x="194" y="383" type="curve"/>
      <point x="252" y="329" type="line"/>
      <point x="344" y="303"/>
      <point x="384" y="285"/>
      <point x="407" y="258" type="curve"/>
      <point x="396" y="214"/>
      <point x="314" y="183"/>
      <point x="209" y="183" type="curve"/>
      <point x="177" y="183"/>
      <point x="146" y="187"/>
      <point x="118" y="195" type="curve"/>
      <point x="111" y="201"/>
      <point x="107" y="210"/>
      <point x="107" y="221" type="curve"/>
      <point x="107" y="267"/>
      <point x="199" y="289"/>
      <point x="388" y="289" type="curve"/>
      <point x="158" y="408" type="line"/>
      <point x="64" y="377"/>
      <point x="15" y="313"/>
      <point x="15" y="219" type="curve"/>
      <point x="15" y="83"/>
      <point x="118" y="-20"/>
    </contour>
  </outline>
</glyph>
<glyph name="theta" format="1">
  <advance width="542"/>
  <unicode hex="03B8"/>
  <outline>
    <contour>
      <point x="265" y="-20" type="curve"/>
      <point x="423" y="-20"/>
      <point x="525" y="130"/>
      <point x="525" y="361" type="curve"/>
      <point x="525" y="593"/>
      <point x="431" y="735"/>
      <point x="277" y="735" type="curve"/>
      <point x="119" y="735"/>
      <point x="17" y="585"/>
      <point x="17" y="354" type="curve"/>
      <point x="17" y="122"/>
      <point x="111" y="-20"/>
    </contour>
    <contour>
      <point x="226" y="183" type="curve"/>
      <point x="194" y="183"/>
      <point x="165" y="187"/>
      <point x="141" y="195" type="curve"/>
      <point x="122" y="218"/>
      <point x="109" y="266"/>
      <point x="109" y="314" type="curve"/>
      <point x="109" y="472"/>
      <point x="165" y="531"/>
      <point x="316" y="531" type="curve"/>
      <point x="348" y="531"/>
      <point x="377" y="527"/>
      <point x="401" y="519" type="curve"/>
      <point x="420" y="496"/>
      <point x="433" y="448"/>
      <point x="433" y="400" type="curve"/>
      <point x="433" y="242"/>
      <point x="377" y="183"/>
    </contour>
    <contour>
      <point x="93" y="310" type="line"/>
      <point x="457" y="285" type="line"/>
      <point x="460" y="429" type="line"/>
      <point x="96" y="395" type="line"/>
    </contour>
  </outline>
</glyph>
<glyph name="iota" format="1">
  <advance width="323"/>
  <unicode hex="03B9"/>
  <outline>
    <contour>
      <point x="179" y="-14" type="curve"/>
      <point x="244" y="-14"/>
      <point x="308" y="50"/>
      <point x="328" y="112" type="curve"/>
      <point x="307" y="160" type="line"/>
      <point x="99" y="139" type="line"/>
      <point x="145" y="111" type="line"/>
      <point x="266" y="460" type="line"/>
      <point x="219" y="502" type="line"/>
      <point x="134" y="502"/>
      <point x="60" y="481"/>
      <point x="30" y="463" type="curve"/>
      <point x="41" y="209" type="line" smooth="yes"/>
      <point x="47" y="62"/>
      <point x="104" y="-14"/>
    </contour>
    <contour>
      <point x="166" y="474" type="move" name="top"/>
    </contour>
  </outline>
</glyph>
<glyph name="kappa" format="1">
  <advance width="581"/>
  <unicode hex="03BA"/>
  <outline>
    <contour>
      <point x="211" y="-10" type="curve"/>
      <point x="253" y="100"/>
      <point x="287" y="157"/>
      <point x="341" y="204" type="curve"/>
      <point x="393" y="249"/>
      <point x="458" y="288"/>
      <point x="546" y="327" type="curve"/>
      <point x="563" y="375" type="line"/>
      <point x="547" y="435"/>
      <point x="525" y="478"/>
      <point x="495" y="504" type="curve"/>
      <point x="415" y="479"/>
      <point x="346" y="434"/>
      <point x="286" y="364" type="curve"/>
      <point x="234" y="302"/>
      <point x="193" y="219"/>
      <point x="147" y="82" type="curve"/>
      <point x="152" y="57" type="line"/>
      <point x="234" y="465" type="line"/>
      <point x="190" y="502" type="line"/>
      <point x="124" y="502"/>
      <point x="57" y="487"/>
      <point x="18" y="464" type="curve"/>
      <point x="54" y="262" type="line"/>
      <point x="61" y="3" type="line"/>
      <point x="93" y="-10"/>
      <point x="167" y="-17"/>
    </contour>
    <contour>
      <point x="447" y="-17" type="curve"/>
      <point x="495" y="-17"/>
      <point x="548" y="37"/>
      <point x="569" y="107" type="curve"/>
      <point x="547" y="155" type="line"/>
      <point x="387" y="140" type="line"/>
      <point x="447" y="97" type="line"/>
      <point x="413" y="177"/>
      <point x="395" y="239"/>
      <point x="389" y="301" type="curve"/>
      <point x="271" y="217" type="line"/>
      <point x="342" y="79" type="line" smooth="yes"/>
      <point x="377" y="10"/>
      <point x="407" y="-17"/>
    </contour>
  </outline>
</glyph>
<glyph name="lamda" format="1">
  <advance width="583"/>
  <unicode hex="03BB"/>
  <outline>
    <contour>
      <point x="477" y="-14" type="curve"/>
      <point x="525" y="-14"/>
      <point x="578" y="40"/>
      <point x="599" y="110" type="curve"/>
      <point x="577" y="158" type="line"/>
      <point x="417" y="143" type="line"/>
      <point x="469" y="104" type="line"/>
      <point x="385" y="453" type="line" smooth="yes"/>
      <point x="335" y="660"/>
      <point x="263" y="735"/>
      <point x="116" y="735" type="curve"/>
      <point x="78" y="735"/>
      <point x="27" y="725"/>
      <point x="-3" y="713" type="curve"/>
      <point x="-3" y="663"/>
      <point x="14" y="592"/>
      <point x="36" y="550" type="curve"/>
      <point x="74" y="528" type="line"/>
      <point x="199" y="579" type="line"/>
      <point x="150" y="627" type="line"/>
      <point x="166" y="600"/>
      <point x="178" y="571"/>
      <point x="191" y="533" type="curve"/>
      <point x="206" y="489"/>
      <point x="219" y="438"/>
      <point x="236" y="399" type="curve"/>
      <point x="366" y="106" type="line" smooth="yes"/>
      <point x="404" y="19"/>
      <point x="435" y="-14"/>
    </contour>
    <contour>
      <point x="135" y="-14" type="curve"/>
      <point x="174" y="17" type="line"/>
      <point x="292" y="380" type="line"/>
      <point x="232" y="492" type="line"/>
      <point x="3" y="72" type="line"/>
      <point x="29" y="28"/>
      <point x="91" y="-12"/>
    </contour>
  </outline>
</glyph>
<glyph name="nu" format="1">
  <advance width="564"/>
  <unicode hex="03BD"/>
  <outline>
    <contour>
      <point x="315" y="-12" type="curve"/>
      <point x="450" y="78"/>
      <point x="544" y="247"/>
      <point x="544" y="391" type="curve"/>
      <point x="544" y="414"/>
      <point x="542" y="436"/>
      <point x="538" y="461" type="curve"/>
      <point x="500" y="484"/>
      <point x="445" y="496"/>
      <point x="375" y="498" type="curve"/>
      <point x="347" y="450" type="line"/>
      <point x="357" y="410"/>
      <point x="362" y="377"/>
      <point x="362" y="339" type="curve"/>
      <point x="362" y="217"/>
      <point x="305" y="104"/>
      <point x="228" y="75" type="curve"/>
      <point x="255" y="67" type="line"/>
      <point x="302" y="219" type="line"/>
      <point x="289" y="403"/>
      <point x="231" y="500"/>
      <point x="134" y="500" type="curve"/>
      <point x="79" y="500"/>
      <point x="22" y="457"/>
      <point x="-10" y="394" type="curve"/>
      <point x="10" y="331" type="line"/>
      <point x="108" y="340" type="line"/>
      <point x="125" y="295"/>
      <point x="142" y="237"/>
      <point x="158" y="173" type="curve"/>
      <point x="196" y="16" type="line"/>
      <point x="222" y="-5"/>
      <point x="278" y="-17"/>
    </contour>
    <contour>
      <point x="211" y="74" type="line"/>
      <point x="230" y="39" type="line"/>
      <point x="303" y="90" type="line"/>
      <point x="245" y="123" type="line"/>
    </contour>
  </outline>
</glyph>
<glyph name="xi" format="1">
  <advance width="444"/>
  <unicode hex="03BE"/>
  <outline>
    <contour>
      <point x="220" y="-136" type="line"/>
      <point x="290" y="-191" type="line"/>
      <point x="398" y="-105"/>
      <point x="440" y="-43"/>
      <point x="440" y="30" type="curve"/>
      <point x="440" y="76"/>
      <point x="422" y="117"/>
      <point x="377" y="142" type="curve"/>
      <point x="345" y="160"/>
      <point x="288" y="176"/>
      <point x="214" y="190" type="curve"/>
      <point x="135" y="205"/>
      <point x="115" y="210"/>
      <point x="96" y="220" type="curve"/>
      <point x="116" y="251"/>
      <point x="198" y="270"/>
      <point x="285" y="267" type="curve"/>
      <point x="181" y="341" type="line"/>
      <point x="85" y="339"/>
      <point x="20" y="290"/>
      <point x="20" y="219" type="curve"/>
      <point x="20" y="164"/>
      <point x="37" y="113"/>
      <point x="67" y="78" type="curve"/>
      <point x="95" y="44"/>
      <point x="139" y="19"/>
      <point x="204" y="2" type="curve"/>
      <point x="276" y="-17"/>
      <point x="302" y="-25"/>
      <point x="349" y="-43" type="curve"/>
      <point x="324" y="-13" type="line"/>
    </contour>
    <contour>
      <point x="231" y="273" type="line"/>
      <point x="388" y="245" type="line"/>
      <point x="401" y="289"/>
      <point x="409" y="335"/>
      <point x="403" y="378" type="curve"/>
      <point x="365" y="406" type="line"/>
      <point x="175" y="359" type="line"/>
      <point x="151" y="309" type="line"/>
    </contour>
    <contour>
      <point x="152" y="325" type="curve"/>
      <point x="266" y="357" type="line"/>
      <point x="197" y="370"/>
      <point x="167" y="385"/>
      <point x="145" y="414" type="curve"/>
      <point x="170" y="456"/>
      <point x="288" y="496"/>
      <point x="430" y="500" type="curve"/>
      <point x="457" y="549" type="line"/>
      <point x="450" y="582"/>
      <point x="411" y="641"/>
      <point x="365" y="688" type="curve"/>
      <point x="197" y="645"/>
      <point x="39" y="514"/>
      <point x="39" y="418" type="curve"/>
      <point x="39" y="375"/>
      <point x="82" y="339"/>
    </contour>
    <contour>
      <point x="157" y="598" type="curve"/>
      <point x="173" y="576" type="line"/>
      <point x="287" y="650" type="line"/>
      <point x="227" y="649"/>
      <point x="183" y="653"/>
      <point x="136" y="664" type="curve"/>
      <point x="79" y="743" type="line"/>
      <point x="2" y="729" type="line"/>
      <point x="-27" y="587"/>
      <point x="20" y="548"/>
    </contour>
  </outline>
</glyph>
<glyph name="omicron" format="1">
  <advance width="534"/>
  <unicode hex="03BF"/>
  <outline>
    <contour>
      <point x="261" y="-20" type="curve"/>
      <point x="410" y="-20"/>
      <point x="519" y="93"/>
      <point x="519" y="251" type="curve"/>
      <point x="519" y="401"/>
      <point x="419" y="505"/>
      <point x="273" y="505" type="curve"/>
      <point x="124" y="505"/>
      <point x="15" y="391"/>
      <point x="15" y="233" type="curve"/>
      <point x="15" y="83"/>
      <point x="115" y="-20"/>
    </contour>
    <contour>
      <point x="218" y="183" type="curve"/>
      <point x="179" y="183"/>
      <point x="145" y="187"/>
      <point x="118" y="195" type="curve"/>
      <point x="111" y="201"/>
      <point x="107" y="212"/>
      <point x="107" y="224" type="curve"/>
      <point x="107" y="275"/>
      <point x="177" y="301"/>
      <point x="316" y="301" type="curve"/>
      <point x="355" y="301"/>
      <point x="389" y="297"/>
      <point x="416" y="289" type="curve"/>
      <point x="423" y="283"/>
      <point x="427" y="272"/>
      <point x="427" y="260" type="curve"/>
      <point x="427" y="209"/>
      <point x="357" y="183"/>
    </contour>
    <contour>
      <point x="291" y="474" type="move" name="top"/>
    </contour>
  </outline>
</glyph>
<glyph name="finalsigma" format="1">
  <advance width="469"/>
  <unicode hex="03C2"/>
  <outline>
    <contour>
      <point x="209" y="-136" type="line"/>
      <point x="279" y="-191" type="line"/>
      <point x="387" y="-105"/>
      <point x="429" y="-43"/>
      <point x="429" y="30" type="curve"/>
      <point x="429" y="80"/>
      <point x="410" y="113"/>
      <point x="365" y="140" type="curve"/>
      <point x="342" y="153"/>
      <point x="316" y="163"/>
      <point x="210" y="197" type="curve"/>
      <point x="124" y="225"/>
      <point x="105" y="232"/>
      <point x="94" y="243" type="curve"/>
      <point x="108" y="293"/>
      <point x="165" y="321"/>
      <point x="251" y="321" type="curve"/>
      <point x="417" y="297" type="line"/>
      <point x="455" y="328" type="line"/>
      <point x="463" y="374"/>
      <point x="460" y="440"/>
      <point x="448" y="485" type="curve"/>
      <point x="415" y="499"/>
      <point x="375" y="505"/>
      <point x="317" y="505" type="curve"/>
      <point x="146" y="505"/>
      <point x="15" y="392"/>
      <point x="15" y="245" type="curve"/>
      <point x="15" y="195"/>
      <point x="21" y="159"/>
      <point x="35" y="132" type="curve"/>
      <point x="62" y="73"/>
      <point x="114" y="33"/>
      <point x="198" y="6" type="curve"/>
      <point x="246" y="-9"/>
      <point x="277" y="-20"/>
      <point x="338" y="-43" type="curve"/>
      <point x="313" y="-13" type="line"/>
    </contour>
  </outline>
</glyph>
<glyph name="sigma" format="1">
  <advance width="627"/>
  <unicode hex="03C3"/>
  <outline>
    <contour>
      <point x="252" y="-20" type="curve"/>
      <point x="385" y="-20"/>
      <point x="487" y="76"/>
      <point x="487" y="202" type="curve"/>
      <point x="487" y="255"/>
      <point x="471" y="304"/>
      <point x="437" y="352" type="curve"/>
      <point x="353" y="331" type="line"/>
      <point x="377" y="313"/>
      <point x="391" y="287"/>
      <point x="391" y="261" type="curve"/>
      <point x="391" y="214"/>
      <point x="321" y="183"/>
      <point x="215" y="183" type="curve"/>
      <point x="161" y="183"/>
      <point x="138" y="186"/>
      <point x="118" y="196" type="curve"/>
      <point x="111" y="202"/>
      <point x="107" y="212"/>
      <point x="107" y="224" type="curve"/>
      <point x="107" y="270"/>
      <point x="172" y="291"/>
      <point x="313" y="291" type="curve"/>
      <point x="442" y="291" type="line"/>
      <point x="588" y="277" type="line"/>
      <point x="617" y="325" type="line"/>
      <point x="619" y="372"/>
      <point x="602" y="457"/>
      <point x="582" y="500" type="curve"/>
      <point x="381" y="482" type="line"/>
      <point x="281" y="482" type="line" smooth="yes"/>
      <point x="122" y="482"/>
      <point x="15" y="379"/>
      <point x="15" y="229" type="curve"/>
      <point x="15" y="80"/>
      <point x="111" y="-20"/>
    </contour>
  </outline>
</glyph>
<glyph name="kaisymbol" format="1">
  <advance width="581"/>
  <unicode hex="03D7"/>
  <outline>
    <contour>
      <point x="211" y="-10" type="curve"/>
      <point x="254" y="101"/>
      <point x="288" y="158"/>
      <point x="341" y="204" type="curve"/>
      <point x="393" y="249"/>
      <point x="458" y="288"/>
      <point x="546" y="327" type="curve"/>
      <point x="563" y="375" type="line"/>
      <point x="554" y="422"/>
      <point x="523" y="480"/>
      <point x="495" y="504" type="curve"/>
      <point x="413" y="478"/>
      <point x="345" y="433"/>
      <point x="286" y="364" type="curve"/>
      <point x="234" y="302"/>
      <point x="193" y="219"/>
      <point x="147" y="82" type="curve"/>
      <point x="152" y="57" type="line"/>
      <point x="234" y="465" type="line"/>
      <point x="190" y="502" type="line"/>
      <point x="124" y="502"/>
      <point x="57" y="487"/>
      <point x="18" y="464" type="curve"/>
      <point x="54" y="262" type="line"/>
      <point x="61" y="3" type="line"/>
      <point x="94" y="-10"/>
      <point x="168" y="-17"/>
    </contour>
    <contour>
      <point x="158" y="-220" type="curve"/>
      <point x="267" y="-220"/>
      <point x="375" y="-169"/>
      <point x="452" y="-92" type="curve"/>
      <point x="526" y="-18"/>
      <point x="558" y="54"/>
      <point x="573" y="111" type="curve"/>
      <point x="554" y="156" type="line"/>
      <point x="394" y="142" type="line"/>
      <point x="447" y="97" type="line"/>
      <point x="403" y="190"/>
      <point x="385" y="239"/>
      <point x="375" y="292" type="curve"/>
      <point x="258" y="205" type="line"/>
      <point x="342" y="79" type="line" smooth="yes"/>
      <point x="385" y="15"/>
      <point x="410" y="-6"/>
      <point x="447" y="-6" type="curve"/>
      <point x="428" y="26" type="line"/>
      <point x="413" y="-23"/>
      <point x="284" y="-69"/>
      <point x="207" y="-71" type="curve"/>
      <point x="83" y="-43" type="line"/>
      <point x="37" y="-77" type="line"/>
      <point x="38" y="-115"/>
      <point x="52" y="-174"/>
      <point x="67" y="-202" type="curve"/>
      <point x="88" y="-214"/>
      <point x="121" y="-220"/>
    </contour>
  </outline>
</glyph>
<glyph name="dvShortE" format="1">
  <advance width="620"/>
  <unicode hex="090E"/>
  <outline>
    <component base="dvE"/>
    <component base="dvMatraShortE" xOffset="620"/>
    <contour>
      <point x="620" y="670" type="move" name="abvmBINDU"/>
    </contour>
  </outline>
</glyph>
<glyph name="dvAi" format="1">
  <advance width="620"/>
  <unicode hex="0910"/>
  <outline>
    <component base="dvE"/>
    <component base="dvMatraE" xOffset="623"/>
    <contour>
      <point x="570" y="670" type="move" name="abvmBINDU"/>
    </contour>
  </outline>
</glyph>
<glyph name="dvShortO" format="1">
  <advance width="1214"/>
  <unicode hex="0912"/>
  <outline>
    <component base="dvA"/>
    <component base="dvMatraShortO" xOffset="898"/>
    <contour>
      <point x="1204" y="670" type="move" name="abvmBINDU"/>
    </contour>
    <contour>
      <point x="1028" y="465" type="move" name="abvmTOP"/>
    </contour>
  </outline>
</glyph>
<glyph name="dvMatraOOE" format="1">
  <advance width="316"/>
  <unicode hex="093B"/>
  <outline>
    <contour>
      <point x="67" y="611" type="line"/>
      <point x="164" y="564" type="line"/>
      <point x="195" y="584" type="line"/>
      <point x="195" y="855" type="line"/>
      <point x="67" y="855" type="line"/>
    </contour>
    <component base="dvMatraAa"/>
  </outline>
</glyph>
<glyph name="dvAvagraha" format="1">
  <advance width="580"/>
  <unicode hex="093D"/>
  <outline>
    <contour>
      <point x="334" y="-46" type="curve"/>
      <point x="461" y="-46"/>
      <point x="535" y="44"/>
      <point x="535" y="135" type="curve"/>
      <point x="535" y="223"/>
      <point x="466" y="303"/>
      <point x="379" y="357" type="curve"/>
      <point x="308" y="401"/>
      <point x="239" y="419"/>
      <point x="239" y="454" type="curve"/>
      <point x="239" y="477"/>
      <point x="268" y="484"/>
      <point x="304" y="484" type="curve"/>
      <point x="489" y="484" type="line"/>
      <point x="514" y="531" type="line"/>
      <point x="445" y="637" type="line"/>
      <point x="276" y="637" type="line" smooth="yes"/>
      <point x="156" y="637"/>
      <point x="76" y="581"/>
      <point x="76" y="492" type="curve"/>
      <point x="76" y="402"/>
      <point x="159" y="349"/>
      <point x="271" y="279" type="curve"/>
      <point x="351" y="229"/>
      <point x="381" y="208"/>
      <point x="381" y="169" type="curve"/>
      <point x="381" y="125"/>
      <point x="342" y="103"/>
      <point x="302" y="103" type="curve"/>
      <point x="243" y="103"/>
      <point x="189" y="150"/>
      <point x="156" y="248" type="curve"/>
      <point x="52" y="189" type="line"/>
      <point x="98" y="49"/>
      <point x="204" y="-46"/>
    </contour>
    <contour>
      <point x="310" y="670" type="move" name="abvmBINDU"/>
    </contour>
    <contour>
      <point x="320" y="670" type="move" name="abvmCANDRABINDU"/>
    </contour>
  </outline>
</glyph>
<glyph name="dvMatraAa" format="1">
  <advance width="316"/>
  <unicode hex="093E"/>
  <outline>
    <contour>
      <point x="60" y="23" type="line"/>
      <point x="192" y="-46" type="line"/>
      <point x="246" y="-19" type="line"/>
      <point x="246" y="486" type="line"/>
      <point x="126" y="568" type="line"/>
      <point x="60" y="599" type="line"/>
    </contour>
    <contour>
      <point x="-65" y="621" type="line"/>
      <point x="0" y="538" type="line"/>
      <point x="356" y="538" type="line"/>
      <point x="381" y="587" type="line"/>
      <point x="316" y="670" type="line"/>
      <point x="-40" y="670" type="line"/>
    </contour>
    <contour>
      <point x="28" y="670" type="move" name="abvmBINDU"/>
    </contour>
    <contour>
      <point x="18" y="670" type="move" name="abvmCANDRABINDU"/>
    </contour>
    <contour>
      <point x="143" y="475" type="move" name="abvmTOP"/>
    </contour>
  </outline>
</glyph>
<glyph name="dvMatraVocalicR" format="1">
  <advance width="0"/>
  <unicode hex="0943"/>
  <outline>
    <contour>
      <point x="-140" y="-351" type="curve"/>
      <point x="-80" y="-351"/>
      <point x="-6" y="-326"/>
      <point x="43" y="-276" type="curve"/>
      <point x="-30" y="-116" type="line"/>
      <point x="-73" y="-154"/>
      <point x="-152" y="-200"/>
      <point x="-198" y="-200" type="curve"/>
      <point x="-220" y="-200"/>
      <point x="-237" y="-189"/>
      <point x="-237" y="-171" type="curve"/>
      <point x="-237" y="-130"/>
      <point x="-143" y="-84"/>
      <point x="-70" y="-67" type="curve"/>
      <point x="-70" y="77" type="line"/>
      <point x="-91" y="77" type="line"/>
      <point x="-256" y="69"/>
      <point x="-388" y="-6"/>
      <point x="-388" y="-133" type="curve"/>
      <point x="-388" y="-261"/>
      <point x="-253" y="-351"/>
    </contour>
    <contour>
      <point x="-280" y="0" type="move" name="_blwmBOTTOM"/>
    </contour>
  </outline>
</glyph>
<glyph name="dvMatraVocalicRr" format="1">
  <advance width="0"/>
  <unicode hex="0944"/>
  <outline>
    <contour>
      <point x="-50" y="-442" type="curve"/>
      <point x="23" y="-442"/>
      <point x="81" y="-406"/>
      <point x="118" y="-367" type="curve"/>
      <point x="34" y="-235" type="line"/>
      <point x="5" y="-272"/>
      <point x="-71" y="-311"/>
      <point x="-109" y="-311" type="curve"/>
      <point x="-124" y="-311"/>
      <point x="-132" y="-304"/>
      <point x="-132" y="-296" type="curve"/>
      <point x="-132" y="-276"/>
      <point x="-86" y="-254"/>
      <point x="0" y="-237" type="curve"/>
      <point x="27" y="-185" type="line"/>
      <point x="-37" y="-95" type="line"/>
      <point x="-155" y="-115"/>
      <point x="-267" y="-162"/>
      <point x="-267" y="-258" type="curve"/>
      <point x="-267" y="-350"/>
      <point x="-166" y="-442"/>
    </contour>
    <contour>
      <point x="-256" y="-224" type="curve"/>
      <point x="-210" y="-167" type="line"/>
      <point x="-225" y="-162"/>
      <point x="-234" y="-152"/>
      <point x="-234" y="-142" type="curve"/>
      <point x="-234" y="-109"/>
      <point x="-139" y="-77"/>
      <point x="-70" y="-67" type="curve"/>
      <point x="-70" y="75" type="line"/>
      <point x="-107" y="75" type="line"/>
      <point x="-228" y="55"/>
      <point x="-377" y="19"/>
      <point x="-377" y="-90" type="curve"/>
      <point x="-377" y="-141"/>
      <point x="-345" y="-193"/>
    </contour>
    <contour>
      <point x="-280" y="0" type="move" name="_blwmBOTTOM"/>
    </contour>
  </outline>
</glyph>
<glyph name="dvMatraShortE" format="1">
  <advance width="0"/>
  <unicode hex="0946"/>
  <outline>
    <contour>
      <point x="-215" y="642" type="curve"/>
      <point x="-104" y="642" type="line"/>
      <point x="-107" y="1083"/>
      <point x="-476" y="819"/>
      <point x="-511" y="1066" type="curve"/>
      <point x="-615" y="1056" type="line"/>
      <point x="-615" y="626"/>
      <point x="-225" y="855"/>
    </contour>
    <contour>
      <point x="-165" y="475" type="move" name="_abvmTOP"/>
    </contour>
    <contour>
      <point x="11" y="670" type="move" name="abvmBINDU"/>
    </contour>
  </outline>
</glyph>
<glyph name="dvMatraShortO" format="1">
  <advance width="316"/>
  <unicode hex="094A"/>
  <outline>
    <component base="dvMatraAa"/>
    <component base="dvMatraShortE" xOffset="308"/>
    <contour>
      <point x="323" y="670" type="move" name="abvmBINDU"/>
    </contour>
  </outline>
</glyph>
<glyph name="dvUdatta" format="1">
  <advance width="0"/>
  <unicode hex="0951"/>
  <outline>
    <contour>
      <point x="-229" y="763" type="line"/>
      <point x="-132" y="716" type="line"/>
      <point x="-101" y="736" type="line"/>
      <point x="-101" y="980" type="line"/>
      <point x="-198" y="1027" type="line"/>
      <point x="-229" y="1007" type="line"/>
    </contour>
    <contour>
      <point x="-165" y="475" type="move" name="_abvmTOP"/>
    </contour>
  </outline>
</glyph>
<glyph name="dvAnudatta" format="1">
  <advance width="0"/>
  <unicode hex="0952"/>
  <outline>
    <contour>
      <point x="-411" y="-127" type="line"/>
      <point x="-364" y="-224" type="line"/>
      <point x="-50" y="-224" type="line"/>
      <point x="-30" y="-193" type="line"/>
      <point x="-77" y="-96" type="line"/>
      <point x="-391" y="-96" type="line"/>
    </contour>
    <contour>
      <point x="-221" y="0" type="move" name="_blwmBOTTOM"/>
    </contour>
  </outline>
</glyph>
<glyph name="dvAcute" format="1">
  <advance width="0"/>
  <unicode hex="0954"/>
  <outline>
    <contour>
      <point x="-299" y="791" type="line"/>
      <point x="-231" y="720" type="line"/>
      <point x="-189" y="720" type="line"/>
      <point x="-10" y="898" type="line"/>
      <point x="-74" y="975" type="line"/>
      <point x="-116" y="975" type="line"/>
    </contour>
    <contour>
      <point x="-155" y="475" type="move" name="_abvmTOP"/>
    </contour>
  </outline>
</glyph>
<glyph name="dvMatraUE" format="1">
  <advance width="0"/>
  <unicode hex="0956"/>
  <outline>
    <contour>
      <point x="-278" y="-283" type="curve"/>
      <point x="-186" y="-283"/>
      <point x="-99" y="-244"/>
      <point x="-58" y="-188" type="curve"/>
      <point x="-141" y="-54" type="line"/>
      <point x="-187" y="-100"/>
      <point x="-260" y="-129"/>
      <point x="-333" y="-129" type="curve"/>
      <point x="-393" y="-129"/>
      <point x="-453" y="-110"/>
      <point x="-499" y="-64" type="curve"/>
      <point x="-546" y="-120" type="line"/>
      <point x="-482" y="-238"/>
      <point x="-377" y="-283"/>
    </contour>
    <contour>
      <point x="-260" y="0" type="move" name="_blwmBOTTOM"/>
    </contour>
  </outline>
</glyph>
<glyph name="dvRha" format="1">
  <advance width="649"/>
  <unicode hex="095D"/>
  <outline>
    <component base="dvDdha"/>
    <component base="dvNukta" xOffset="371" yOffset="-98"/>
    <contour>
      <point x="419" y="670" type="move" name="abvmBINDU"/>
    </contour>
    <contour>
      <point x="399" y="670" type="move" name="abvmCANDRABINDU"/>
    </contour>
    <contour>
      <point x="689" y="670" type="move" name="abvmCANDRABINDU2"/>
    </contour>
    <contour>
      <point x="449" y="475" type="move" name="abvmTOP"/>
    </contour>
    <contour>
      <point x="349" y="-337" type="move" name="blwmBOTTOM"/>
    </contour>
  </outline>
</glyph>
<glyph name="dvDanda" format="1">
  <advance width="500"/>
  <unicode hex="0964"/>
  <outline>
    <contour>
      <point x="220" y="23" type="line"/>
      <point x="352" y="-67" type="line"/>
      <point x="406" y="-40" type="line"/>
      <point x="406" y="604" type="line"/>
      <point x="274" y="694" type="line"/>
      <point x="220" y="667" type="line"/>
    </contour>
  </outline>
</glyph>
<glyph name="dvZero" format="1">
  <advance width="565"/>
  <unicode hex="0966"/>
  <outline>
    <contour>
      <point x="328" y="45" type="curve"/>
      <point x="449" y="45"/>
      <point x="544" y="137"/>
      <point x="544" y="256" type="curve"/>
      <point x="544" y="402"/>
      <point x="401" y="561"/>
      <point x="252" y="561" type="curve"/>
      <point x="143" y="561"/>
      <point x="21" y="476"/>
      <point x="21" y="339" type="curve"/>
      <point x="21" y="182"/>
      <point x="180" y="45"/>
    </contour>
    <contour>
      <point x="221" y="205" type="curve"/>
      <point x="202" y="225"/>
      <point x="193" y="250"/>
      <point x="193" y="276" type="curve"/>
      <point x="193" y="342"/>
      <point x="252" y="420"/>
      <point x="353" y="389" type="curve"/>
      <point x="371" y="365"/>
      <point x="380" y="338"/>
      <point x="380" y="311" type="curve"/>
      <point x="380" y="242"/>
      <point x="320" y="180"/>
    </contour>
  </outline>
</glyph>
<glyph name="dvFour" format="1">
  <advance width="600"/>
  <unicode hex="096A"/>
  <outline>
    <contour>
      <point x="346" y="-50" type="curve"/>
      <point x="446" y="-50"/>
      <point x="513" y="28"/>
      <point x="513" y="120" type="curve"/>
      <point x="513" y="183"/>
      <point x="481" y="241"/>
      <point x="436" y="298" type="curve"/>
      <point x="325" y="439"/>
      <point x="89" y="630"/>
      <point x="45" y="667" type="curve"/>
      <point x="-41" y="564" type="line"/>
      <point x="31" y="502"/>
      <point x="164" y="387"/>
      <point x="255" y="291" type="curve"/>
      <point x="341" y="200"/>
      <point x="354" y="164"/>
      <point x="354" y="138" type="curve"/>
      <point x="354" y="95"/>
      <point x="320" y="67"/>
      <point x="274" y="88" type="curve"/>
      <point x="266" y="100"/>
      <point x="263" y="114"/>
      <point x="263" y="126" type="curve"/>
      <point x="263" y="162"/>
      <point x="289" y="202"/>
      <point x="353" y="276" type="curve"/>
      <point x="439" y="375"/>
      <point x="578" y="517"/>
      <point x="607" y="546" type="curve"/>
      <point x="480" y="666" type="line"/>
      <point x="384" y="571"/>
      <point x="281" y="461"/>
      <point x="220" y="388" type="curve"/>
      <point x="148" y="302"/>
      <point x="104" y="233"/>
      <point x="104" y="164" type="curve"/>
      <point x="104" y="46"/>
      <point x="235" y="-50"/>
    </contour>
  </outline>
</glyph>
<glyph name="dvFive" format="1">
  <advance width="597"/>
  <unicode hex="096B"/>
  <outline>
    <contour>
      <point x="283" y="107" type="curve"/>
      <point x="361" y="107"/>
      <point x="446" y="159"/>
      <point x="466" y="263" type="curve"/>
      <point x="353" y="398" type="line"/>
      <point x="341" y="258"/>
      <point x="218" y="238"/>
      <point x="178" y="306" type="curve"/>
      <point x="183" y="376"/>
      <point x="209" y="459"/>
      <point x="271" y="601" type="curve"/>
      <point x="99" y="672" type="line"/>
      <point x="40" y="567"/>
      <point x="10" y="464"/>
      <point x="10" y="396" type="curve"/>
      <point x="10" y="308"/>
      <point x="60" y="225"/>
      <point x="126" y="171" type="curve"/>
      <point x="177" y="129"/>
      <point x="233" y="107"/>
    </contour>
    <contour>
      <point x="356" y="329" type="line"/>
      <point x="409" y="-64" type="line"/>
      <point x="552" y="-38" type="line"/>
      <point x="575" y="12" type="line"/>
      <point x="456" y="310" type="line"/>
    </contour>
    <contour>
      <point x="405" y="267" type="line"/>
      <point x="458" y="233" type="line"/>
      <point x="483" y="274"/>
      <point x="516" y="377"/>
      <point x="514" y="442" type="curve"/>
      <point x="350" y="501" type="line"/>
      <point x="309" y="461" type="line"/>
      <point x="350" y="270" type="line"/>
    </contour>
  </outline>
</glyph>
<glyph name="dvEight" format="1">
  <advance width="520"/>
  <unicode hex="096E"/>
  <outline>
    <contour>
      <point x="317" y="-34" type="curve"/>
      <point x="402" y="-34"/>
      <point x="475" y="17"/>
      <point x="530" y="108" type="curve"/>
      <point x="417" y="235" type="line"/>
      <point x="362" y="157"/>
      <point x="312" y="126"/>
      <point x="270" y="126" type="curve"/>
      <point x="228" y="126"/>
      <point x="200" y="157"/>
      <point x="200" y="197" type="curve"/>
      <point x="200" y="227"/>
      <point x="216" y="257"/>
      <point x="274" y="327" type="curve"/>
      <point x="437" y="523" type="line"/>
      <point x="316" y="668" type="line"/>
      <point x="124" y="433" type="line" smooth="yes"/>
      <point x="64" y="359"/>
      <point x="40" y="292"/>
      <point x="40" y="238" type="curve"/>
      <point x="40" y="110"/>
      <point x="175" y="-34"/>
    </contour>
  </outline>
</glyph>
<glyph name="dvAW" format="1">
  <advance width="1214"/>
  <unicode hex="0975"/>
  <outline>
    <component base="dvA"/>
    <component base="dvMatraAW" xOffset="898"/>
    <contour>
      <point x="1215" y="670" type="move" name="abvmBINDU"/>
    </contour>
  </outline>
</glyph>
<glyph name="dvUE" format="1">
  <advance width="898"/>
  <unicode hex="0976"/>
  <outline>
    <component base="dvA"/>
    <component base="dvMatraUE" xOffset="842"/>
    <contour>
      <point x="728" y="670" type="move" name="abvmBINDU"/>
    </contour>
    <contour>
      <point x="708" y="670" type="move" name="abvmCANDRABINDU"/>
    </contour>
  </outline>
</glyph>
<glyph name="lenis" format="1">
  <advance width="265"/>
  <unicode hex="1FBF"/>
  <outline>
    <contour>
      <point x="61" y="585" type="curve"/>
      <point x="101" y="531" type="line"/>
      <point x="181" y="565"/>
      <point x="237" y="636"/>
      <point x="237" y="704" type="curve"/>
      <point x="237" y="744"/>
      <point x="214" y="790"/>
      <point x="150" y="806" type="curve"/>
      <point x="110" y="790"/>
      <point x="76" y="750"/>
      <point x="69" y="702" type="curve"/>
      <point x="120" y="663" type="line"/>
      <point x="119" y="637"/>
      <point x="98" y="614"/>
    </contour>
    <contour>
      <point x="173" y="474" type="move" name="_top"/>
    </contour>
  </outline>
</glyph>
<glyph name="lenisgrave" format="1">
  <advance width="265"/>
  <unicode hex="1FCD"/>
  <outline>
    <contour>
      <point x="154" y="732" type="line"/>
      <point x="265" y="531" type="line"/>
      <point x="334" y="557" type="line"/>
      <point x="285" y="803" type="line"/>
      <point x="241" y="811"/>
      <point x="182" y="789"/>
      <point x="158" y="770" type="curve"/>
    </contour>
    <contour>
      <point x="-45" y="585" type="curve"/>
      <point x="-5" y="531" type="line"/>
      <point x="75" y="565"/>
      <point x="131" y="636"/>
      <point x="131" y="704" type="curve"/>
      <point x="131" y="744"/>
      <point x="108" y="790"/>
      <point x="44" y="806" type="curve"/>
      <point x="4" y="790"/>
      <point x="-30" y="750"/>
      <point x="-37" y="702" type="curve"/>
      <point x="14" y="663" type="line"/>
      <point x="13" y="637"/>
      <point x="-8" y="614"/>
    </contour>
    <contour>
      <point x="190" y="474" type="move" name="_top"/>
    </contour>
  </outline>
</glyph>
<glyph name="lenisacute" format="1">
  <advance width="265"/>
  <unicode hex="1FCE"/>
  <outline>
    <contour>
      <point x="144" y="557" type="line"/>
      <point x="213" y="531" type="line"/>
      <point x="324" y="732" type="line"/>
      <point x="320" y="770" type="line"/>
      <point x="296" y="789"/>
      <point x="237" y="811"/>
      <point x="193" y="803" type="curve"/>
    </contour>
    <contour>
      <point x="-45" y="585" type="curve"/>
      <point x="-5" y="531" type="line"/>
      <point x="75" y="565"/>
      <point x="131" y="636"/>
      <point x="131" y="704" type="curve"/>
      <point x="131" y="744"/>
      <point x="108" y="790"/>
      <point x="44" y="806" type="curve"/>
      <point x="4" y="790"/>
      <point x="-30" y="750"/>
      <point x="-37" y="702" type="curve"/>
      <point x="14" y="663" type="line"/>
      <point x="13" y="637"/>
      <point x="-8" y="614"/>
    </contour>
    <contour>
      <point x="158" y="474" type="move" name="_top"/>
    </contour>
  </outline>
</glyph>
<glyph name="dieresisgrave" format="1">
  <advance width="265"/>
  <unicode hex="1FED"/>
  <outline>
    <contour>
      <point x="45" y="735" type="line"/>
      <point x="132" y="531" type="line"/>
      <point x="208" y="551" type="line"/>
      <point x="182" y="803" type="line"/>
      <point x="133" y="811"/>
      <point x="73" y="792"/>
      <point x="49" y="773" type="curve"/>
    </contour>
    <contour>
      <point x="-59" y="548" type="curve"/>
      <point x="-14" y="572"/>
      <point x="15" y="607"/>
      <point x="31" y="654" type="curve"/>
      <point x="17" y="701"/>
      <point x="-27" y="739"/>
      <point x="-76" y="760" type="curve"/>
      <point x="-124" y="733"/>
      <point x="-160" y="694"/>
      <point x="-169" y="637" type="curve"/>
      <point x="-145" y="594"/>
      <point x="-110" y="565"/>
    </contour>
    <contour>
      <point x="344" y="548" type="curve"/>
      <point x="389" y="572"/>
      <point x="418" y="607"/>
      <point x="434" y="654" type="curve"/>
      <point x="420" y="701"/>
      <point x="376" y="739"/>
      <point x="327" y="760" type="curve"/>
      <point x="279" y="733"/>
      <point x="243" y="694"/>
      <point x="234" y="637" type="curve"/>
      <point x="258" y="594"/>
      <point x="293" y="565"/>
    </contour>
    <contour>
      <point x="164" y="474" type="move" name="_top"/>
    </contour>
  </outline>
</glyph>
<glyph name="bullet" format="1">
  <advance width="419"/>
  <unicode hex="2022"/>
  <outline>
    <contour>
      <point x="226" y="81" type="curve"/>
      <point x="299" y="119"/>
      <point x="346" y="177"/>
      <point x="370" y="251" type="curve"/>
      <point x="344" y="328"/>
      <point x="277" y="388"/>
      <point x="199" y="422" type="curve"/>
      <point x="121" y="378"/>
      <point x="63" y="315"/>
      <point x="49" y="224" type="curve"/>
      <point x="86" y="155"/>
      <point x="145" y="109"/>
    </contour>
  </outline>
</glyph>
<glyph name="guilsinglleft" format="1">
  <advance width="379"/>
  <unicode hex="2039"/>
  <outline>
    <contour>
      <point x="52" y="207" type="line"/>
      <point x="228" y="29" type="line"/>
      <point x="327" y="99" type="line"/>
      <point x="231" y="253" type="line"/>
      <point x="320" y="415" type="line"/>
      <point x="228" y="480" type="line"/>
      <point x="52" y="299" type="line"/>
    </contour>
  </outline>
</glyph>
<glyph name="product" format="1">
  <advance width="842"/>
  <unicode hex="220F"/>
  <outline>
    <contour>
      <point x="489" y="680" type="line"/>
      <point x="489" y="-100" type="line"/>
      <point x="699" y="-100" type="line"/>
      <point x="699" y="680" type="line"/>
    </contour>
    <contour>
      <point x="49" y="-68" type="curve"/>
      <point x="55" y="-100" type="line"/>
      <point x="149" y="-100" type="line"/>
      <point x="148" y="-9" type="line"/>
      <point x="110" y="-27"/>
      <point x="77" y="-46"/>
    </contour>
    <contour>
      <point x="295" y="-21" type="line"/>
      <point x="292" y="-100" type="line"/>
      <point x="432" y="-100" type="line"/>
      <point x="433" y="-45" type="line"/>
    </contour>
    <contour>
      <point x="134" y="680" type="line"/>
      <point x="134" y="-100" type="line"/>
      <point x="344" y="-100" type="line"/>
      <point x="344" y="680" type="line"/>
    </contour>
    <contour>
      <point x="650" y="-21" type="line"/>
      <point x="647" y="-100" type="line"/>
      <point x="787" y="-100" type="line"/>
      <point x="788" y="-45" type="line"/>
    </contour>
    <contour>
      <point x="22" y="708" type="curve"/>
      <point x="36" y="627" type="line"/>
      <point x="775" y="627" type="line"/>
      <point x="820" y="676" type="line"/>
      <point x="816" y="735" type="line"/>
      <point x="131" y="735" type="line"/>
      <point x="100" y="735"/>
      <point x="60" y="727"/>
    </contour>
  </outline>
</glyph>
<glyph name="asper.case" format="1">
  <advance width="265"/>
  <outline>
    <contour>
      <point x="174" y="403" type="curve"/>
      <point x="214" y="457" type="line"/>
      <point x="177" y="486"/>
      <point x="156" y="509"/>
      <point x="155" y="535" type="curve"/>
      <point x="206" y="574" type="line"/>
      <point x="199" y="622"/>
      <point x="165" y="662"/>
      <point x="125" y="678" type="curve"/>
      <point x="61" y="662"/>
      <point x="38" y="616"/>
      <point x="38" y="576" type="curve"/>
      <point x="38" y="508"/>
      <point x="94" y="437"/>
    </contour>
    <contour>
      <point x="232" y="343" type="move" name="_left"/>
    </contour>
  </outline>
</glyph>
<glyph name="dvCChVa" format="1">
  <advance width="1273"/>
  <outline>
    <component base="dvC"/>
    <component base="dvChVa" xOffset="468"/>
    <contour>
      <point x="873" y="670" type="move" name="abvmBINDU"/>
    </contour>
    <contour>
      <point x="893" y="670" type="move" name="abvmCANDRABINDU"/>
    </contour>
    <contour>
      <point x="1353" y="670" type="move" name="abvmCANDRABINDU2"/>
    </contour>
    <contour>
      <point x="1058" y="475" type="move" name="abvmTOP"/>
    </contour>
    <contour>
      <point x="882" y="-392" type="move" name="blwmBOTTOM"/>
    </contour>
  </outline>
</glyph>
<glyph name="dvCandrabindu.calt" format="1">
  <advance width="0"/>
  <outline>
    <contour>
      <point x="-194" y="699" type="curve"/>
      <point x="-74" y="699"/>
      <point x="15" y="788"/>
      <point x="34" y="900" type="curve"/>
      <point x="-105" y="974" type="line"/>
      <point x="-118" y="896"/>
      <point x="-175" y="853"/>
      <point x="-238" y="853" type="curve"/>
      <point x="-294" y="853"/>
      <point x="-353" y="887"/>
      <point x="-394" y="972" type="curve"/>
      <point x="-477" y="906" type="line"/>
      <point x="-423" y="768"/>
      <point x="-300" y="699"/>
    </contour>
    <contour>
      <point x="-228" y="883" type="curve"/>
      <point x="-194" y="906"/>
      <point x="-157" y="953"/>
      <point x="-142" y="993" type="curve"/>
      <point x="-164" y="1022"/>
      <point x="-210" y="1064"/>
      <point x="-250" y="1080" type="curve"/>
      <point x="-284" y="1060"/>
      <point x="-319" y="1013"/>
      <point x="-341" y="970" type="curve"/>
      <point x="-317" y="937"/>
      <point x="-264" y="897"/>
    </contour>
    <contour>
      <point x="-63" y="670" type="move" name="_abvmCANDRABINDU"/>
    </contour>
  </outline>
</glyph>
<glyph name="dvChRYa" format="1">
  <advance width="1456"/>
  <outline>
    <component base="dvChYa"/>
    <component base="dvRakar" xOffset="398" yOffset="22"/>
    <contour>
      <point x="1136" y="670" type="move" name="abvmBINDU"/>
    </contour>
    <contour>
      <point x="1166" y="670" type="move" name="abvmCANDRABINDU"/>
    </contour>
    <contour>
      <point x="1586" y="670" type="move" name="abvmCANDRABINDU2"/>
    </contour>
    <contour>
      <point x="1281" y="475" type="move" name="abvmTOP"/>
    </contour>
    <contour>
      <point x="1176" y="-50" type="move" name="blwmBOTTOM"/>
    </contour>
  </outline>
</glyph>
<glyph name="dvDBhYa" format="1">
  <advance width="1670"/>
  <outline>
    <component base="dvDBha"/>
    <component base="dvYa.post" xOffset="959"/>
    <contour>
      <point x="1350" y="670" type="move" name="abvmBINDU"/>
    </contour>
    <contour>
      <point x="1380" y="670" type="move" name="abvmCANDRABINDU"/>
    </contour>
    <contour>
      <point x="1800" y="670" type="move" name="abvmCANDRABINDU2"/>
    </contour>
    <contour>
      <point x="1495" y="475" type="move" name="abvmTOP"/>
    </contour>
    <contour>
      <point x="1390" y="-50" type="move" name="blwmBOTTOM"/>
    </contour>
  </outline>
</glyph>
<glyph name="dvDRYa" format="1">
  <advance width="1250"/>
  <outline>
    <component base="dvDRa"/>
    <component base="dvYa.post" xOffset="544"/>
    <contour>
      <point x="935" y="670" type="move" name="abvmBINDU"/>
    </contour>
    <contour>
      <point x="965" y="670" type="move" name="abvmCANDRABINDU"/>
    </contour>
    <contour>
      <point x="1385" y="670" type="move" name="abvmCANDRABINDU2"/>
    </contour>
    <contour>
      <point x="1080" y="475" type="move" name="abvmTOP"/>
    </contour>
    <contour>
      <point x="975" y="-50" type="move" name="blwmBOTTOM"/>
    </contour>
  </outline>
</glyph>
<glyph name="dvDVYa" format="1">
  <advance width="1270"/>
  <outline>
    <component base="dvDVa"/>
    <component base="dvYa.post" xOffset="559"/>
    <contour>
      <point x="951" y="670" type="move" name="abvmBINDU"/>
    </contour>
    <contour>
      <point x="981" y="670" type="move" name="abvmCANDRABINDU"/>
    </contour>
    <contour>
      <point x="1400" y="670" type="move" name="abvmCANDRABINDU2"/>
    </contour>
    <contour>
      <point x="1095" y="475" type="move" name="abvmTOP"/>
    </contour>
    <contour>
      <point x="990" y="-50" type="move" name="blwmBOTTOM"/>
    </contour>
  </outline>
</glyph>
<glyph name="dvDdhYa" format="1">
  <advance width="1310"/>
  <outline>
    <component base="dvDdha"/>
    <component base="dvYa.post" xOffset="599"/>
    <contour>
      <point x="990" y="670" type="move" name="abvmBINDU"/>
    </contour>
    <contour>
      <point x="1020" y="670" type="move" name="abvmCANDRABINDU"/>
    </contour>
    <contour>
      <point x="1440" y="670" type="move" name="abvmCANDRABINDU2"/>
    </contour>
    <contour>
      <point x="1135" y="475" type="move" name="abvmTOP"/>
    </contour>
    <contour>
      <point x="1030" y="-50" type="move" name="blwmBOTTOM"/>
    </contour>
  </outline>
</glyph>
<glyph name="dvFSa" format="1">
  <advance width="1482"/>
  <outline>
    <component base="dvF"/>
    <component base="dvSa" xOffset="673"/>
    <contour>
      <point x="1122" y="670" type="move" name="abvmBINDU"/>
    </contour>
    <contour>
      <point x="1162" y="670" type="move" name="abvmCANDRABINDU"/>
    </contour>
    <contour>
      <point x="1612" y="670" type="move" name="abvmCANDRABINDU2"/>
    </contour>
    <contour>
      <point x="1307" y="475" type="move" name="abvmTOP"/>
    </contour>
    <contour>
      <point x="1202" y="0" type="move" name="blwmBOTTOM"/>
    </contour>
  </outline>
</glyph>
<glyph name="dvJYa" format="1">
  <advance width="1171"/>
  <outline>
    <component base="dvJ.alt"/>
    <component base="dvYa" xOffset="490"/>
    <contour>
      <point x="851" y="670" type="move" name="abvmBINDU"/>
    </contour>
    <contour>
      <point x="881" y="670" type="move" name="abvmCANDRABINDU"/>
    </contour>
    <contour>
      <point x="1301" y="670" type="move" name="abvmCANDRABINDU2"/>
    </contour>
    <contour>
      <point x="996" y="475" type="move" name="abvmTOP"/>
    </contour>
    <contour>
      <point x="891" y="0" type="move" name="blwmBOTTOM"/>
    </contour>
  </outline>
</glyph>
<glyph name="dvKSPLa" format="1">
  <advance width="2228"/>
  <outline>
    <component base="dvK"/>
    <component base="dvS" xOffset="630"/>
    <component base="dvP" xOffset="1120"/>
    <component base="dvLa" xOffset="1438"/>
    <contour>
      <point x="2058" y="670" type="move" name="abvmBINDU"/>
    </contour>
    <contour>
      <point x="2038" y="670" type="move" name="abvmCANDRABINDU"/>
    </contour>
    <contour>
      <point x="2358" y="670" type="move" name="abvmCANDRABINDU2"/>
    </contour>
    <contour>
      <point x="2053" y="475" type="move" name="abvmTOP"/>
    </contour>
    <contour>
      <point x="1948" y="0" type="move" name="blwmBOTTOM"/>
    </contour>
  </outline>
</glyph>
<glyph name="dvKTYa" format="1">
  <advance width="1658"/>
  <outline>
    <component base="dvK"/>
    <component base="dvT" xOffset="640"/>
    <component base="dvYa" xOffset="977"/>
    <contour>
      <point x="1338" y="670" type="move" name="abvmBINDU"/>
    </contour>
    <contour>
      <point x="1368" y="670" type="move" name="abvmCANDRABINDU"/>
    </contour>
    <contour>
      <point x="1788" y="670" type="move" name="abvmCANDRABINDU2"/>
    </contour>
    <contour>
      <point x="1483" y="475" type="move" name="abvmTOP"/>
    </contour>
    <contour>
      <point x="1378" y="0" type="move" name="blwmBOTTOM"/>
    </contour>
  </outline>
</glyph>
<glyph name="dvKhhSa" format="1">
  <advance width="1522"/>
  <outline>
    <component base="dvKhh"/>
    <component base="dvSa" xOffset="713"/>
    <contour>
      <point x="1352" y="670" type="move" name="abvmBINDU"/>
    </contour>
    <contour>
      <point x="1332" y="670" type="move" name="abvmCANDRABINDU"/>
    </contour>
    <contour>
      <point x="1652" y="670" type="move" name="abvmCANDRABINDU2"/>
    </contour>
    <contour>
      <point x="1347" y="475" type="move" name="abvmTOP"/>
    </contour>
    <contour>
      <point x="1242" y="0" type="move" name="blwmBOTTOM"/>
    </contour>
  </outline>
</glyph>
<glyph name="dvMBh" format="1">
  <advance width="877"/>
  <outline>
    <contour>
      <point x="239" y="72" type="curve"/>
      <point x="304" y="109" type="line"/>
      <point x="304" y="309" type="line"/>
      <point x="237" y="351" type="line"/>
      <point x="44" y="351" type="line"/>
      <point x="8" y="293" type="line"/>
      <point x="33" y="207"/>
      <point x="153" y="97"/>
    </contour>
    <contour>
      <point x="131" y="227" type="line"/>
      <point x="304" y="185" type="line"/>
      <point x="304" y="486" type="line"/>
      <point x="184" y="568" type="line"/>
      <point x="115" y="599" type="line"/>
    </contour>
    <contour>
      <point x="191" y="351" type="line"/>
      <point x="222" y="195" type="line"/>
      <point x="561" y="195" type="line"/>
      <point x="519" y="351" type="line"/>
    </contour>
    <contour>
      <point x="-65" y="621" type="line"/>
      <point x="0" y="538" type="line"/>
      <point x="380" y="538" type="line"/>
      <point x="405" y="587" type="line"/>
      <point x="340" y="670" type="line"/>
      <point x="-40" y="670" type="line"/>
    </contour>
    <component base="dvBh" xOffset="425"/>
  </outline>
</glyph>
<glyph name="dvMSha" format="1">
  <advance width="1262"/>
  <outline>
    <contour>
      <point x="559" y="153" type="curve"/>
      <point x="610" y="236" type="line"/>
      <point x="555" y="303"/>
      <point x="512" y="351"/>
      <point x="395" y="351" type="curve"/>
      <point x="166" y="351" type="line"/>
      <point x="166" y="299" type="line"/>
      <point x="262" y="195" type="line"/>
      <point x="434" y="195" type="line" smooth="yes"/>
      <point x="492" y="195"/>
      <point x="518" y="183"/>
    </contour>
    <contour>
      <point x="239" y="72" type="curve"/>
      <point x="304" y="109" type="line"/>
      <point x="304" y="309" type="line"/>
      <point x="237" y="351" type="line"/>
      <point x="44" y="351" type="line"/>
      <point x="8" y="293" type="line"/>
      <point x="33" y="207"/>
      <point x="153" y="97"/>
    </contour>
    <contour>
      <point x="131" y="227" type="line"/>
      <point x="304" y="185" type="line"/>
      <point x="304" y="486" type="line"/>
      <point x="184" y="568" type="line"/>
      <point x="115" y="599" type="line"/>
    </contour>
    <contour>
      <point x="-65" y="621" type="line"/>
      <point x="0" y="538" type="line"/>
      <point x="470" y="538" type="line"/>
      <point x="495" y="587" type="line"/>
      <point x="430" y="670" type="line"/>
      <point x="-40" y="670" type="line"/>
    </contour>
    <component base="dvSha" xOffset="405"/>
    <contour>
      <point x="932" y="670" type="move" name="abvmBINDU"/>
    </contour>
    <contour>
      <point x="922" y="670" type="move" name="abvmCANDRABINDU"/>
    </contour>
    <contour>
      <point x="1392" y="670" type="move" name="abvmCANDRABINDU2"/>
    </contour>
    <contour>
      <point x="1087" y="475" type="move" name="abvmTOP"/>
    </contour>
    <contour>
      <point x="982" y="-95" type="move" name="blwmBOTTOM"/>
    </contour>
  </outline>
</glyph>
<glyph name="dvMatraAi_dvAnusvara" format="1">
  <advance width="0"/>
  <outline>
    <contour>
      <point x="-25" y="710" type="curve"/>
      <point x="8" y="733"/>
      <point x="46" y="780"/>
      <point x="61" y="820" type="curve"/>
      <point x="39" y="848"/>
      <point x="-7" y="891"/>
      <point x="-47" y="906" type="curve"/>
      <point x="-81" y="886"/>
      <point x="-116" y="840"/>
      <point x="-138" y="796" type="curve"/>
      <point x="-114" y="763"/>
      <point x="-61" y="723"/>
    </contour>
    <component base="dvMatraAi"/>
    <contour>
      <point x="-170" y="475" type="move" name="_abvmTOP"/>
    </contour>
  </outline>
</glyph>
<glyph name="dvMatraAi_dvReph_dvAnusvara" format="1">
  <advance width="0"/>
  <outline>
    <contour>
      <point x="6" y="690" type="curve"/>
      <point x="34" y="709"/>
      <point x="65" y="748"/>
      <point x="78" y="781" type="curve"/>
      <point x="60" y="804"/>
      <point x="21" y="839"/>
      <point x="-12" y="852" type="curve"/>
      <point x="-42" y="836"/>
      <point x="-70" y="797"/>
      <point x="-87" y="761" type="curve"/>
      <point x="-67" y="734"/>
      <point x="-23" y="701"/>
    </contour>
    <component base="dvMatraAi_dvReph"/>
    <contour>
      <point x="-170" y="475" type="move" name="_abvmTOP"/>
    </contour>
  </outline>
</glyph>
<glyph name="dvMatraAu_dvReph" format="1">
  <advance width="316"/>
  <outline>
    <component base="dvMatraAa"/>
    <component base="dvMatraAi_dvReph" xOffset="313"/>
    <contour>
      <point x="318" y="600" type="move" name="abvmBINDU"/>
    </contour>
  </outline>
</glyph>
<glyph name="dvMatraE_dvAnusvara" format="1">
  <advance width="0"/>
  <outline>
    <component base="dvMatraE"/>
    <component base="dvAnusvara" xOffset="-57"/>
    <contour>
      <point x="-170" y="475" type="move" name="_abvmTOP"/>
    </contour>
  </outline>
</glyph>
<glyph name="dvMatraE_dvReph_dvAnusvara" format="1">
  <advance width="0"/>
  <outline>
    <contour>
      <point x="-34" y="687" type="curve"/>
      <point x="-6" y="706"/>
      <point x="25" y="745"/>
      <point x="38" y="778" type="curve"/>
      <point x="20" y="801"/>
      <point x="-19" y="836"/>
      <point x="-52" y="849" type="curve"/>
      <point x="-82" y="833"/>
      <point x="-110" y="794"/>
      <point x="-127" y="758" type="curve"/>
      <point x="-107" y="731"/>
      <point x="-63" y="698"/>
    </contour>
    <component base="dvMatraE_dvReph"/>
    <contour>
      <point x="-170" y="475" type="move" name="_abvmTOP"/>
    </contour>
  </outline>
</glyph>
<glyph name="dvMatraI.12" format="1">
  <advance width="316"/>
  <outline>
    <contour>
      <point x="92" y="651" type="curve"/>
      <point x="198" y="651" type="line"/>
      <point x="188" y="672"/>
      <point x="183" y="688"/>
      <point x="183" y="708" type="curve"/>
      <point x="183" y="822"/>
      <point x="340" y="894"/>
      <point x="593" y="894" type="curve"/>
      <point x="857" y="894"/>
      <point x="1205" y="813"/>
      <point x="1583" y="693" type="curve"/>
      <point x="1628" y="779" type="line"/>
      <point x="1063" y="988"/>
      <point x="713" y="1049"/>
      <point x="487" y="1049" type="curve"/>
      <point x="169" y="1049"/>
      <point x="22" y="943"/>
      <point x="22" y="806" type="curve"/>
      <point x="22" y="757"/>
      <point x="41" y="706"/>
    </contour>
    <contour>
      <point x="70" y="23" type="line"/>
      <point x="202" y="-46" type="line"/>
      <point x="256" y="-19" type="line"/>
      <point x="256" y="486" type="line"/>
      <point x="136" y="568" type="line"/>
      <point x="70" y="599" type="line"/>
    </contour>
    <contour>
      <point x="-65" y="621" type="line"/>
      <point x="0" y="538" type="line"/>
      <point x="356" y="538" type="line"/>
      <point x="381" y="587" type="line"/>
      <point x="316" y="670" type="line"/>
      <point x="-40" y="670" type="line"/>
    </contour>
    <contour>
      <point x="1628" y="779" type="move" name="abvmTOP"/>
    </contour>
  </outline>
</glyph>
<glyph name="dvMatraI.21" format="1">
  <advance width="316"/>
  <outline>
    <contour>
      <point x="92" y="651" type="curve"/>
      <point x="198" y="651" type="line"/>
      <point x="197" y="665"/>
      <point x="195" y="671"/>
      <point x="195" y="685" type="curve"/>
      <point x="195" y="829"/>
      <point x="419" y="914"/>
      <point x="790" y="914" type="curve"/>
      <point x="1170" y="914"/>
      <point x="1695" y="825"/>
      <point x="2251" y="699" type="curve"/>
      <point x="2281" y="796" type="line"/>
      <point x="1456" y="1005"/>
      <point x="952" y="1061"/>
      <point x="653" y="1061" type="curve"/>
      <point x="208" y="1061"/>
      <point x="33" y="937"/>
      <point x="33" y="793" type="curve"/>
      <point x="33" y="757"/>
      <point x="44" y="712"/>
    </contour>
    <contour>
      <point x="70" y="23" type="line"/>
      <point x="202" y="-46" type="line"/>
      <point x="256" y="-19" type="line"/>
      <point x="256" y="486" type="line"/>
      <point x="136" y="568" type="line"/>
      <point x="70" y="599" type="line"/>
    </contour>
    <contour>
      <point x="-65" y="621" type="line"/>
      <point x="0" y="538" type="line"/>
      <point x="356" y="538" type="line"/>
      <point x="381" y="587" type="line"/>
      <point x="316" y="670" type="line"/>
      <point x="-40" y="670" type="line"/>
    </contour>
    <contour>
      <point x="2281" y="796" type="move" name="abvmTOP"/>
    </contour>
  </outline>
</glyph>
<glyph name="dvMatraI.4" format="1">
  <advance width="316"/>
  <outline>
    <contour>
      <point x="92" y="651" type="curve"/>
      <point x="198" y="651" type="line"/>
      <point x="180" y="679"/>
      <point x="171" y="705"/>
      <point x="171" y="731" type="curve"/>
      <point x="171" y="815"/>
      <point x="260" y="875"/>
      <point x="397" y="875" type="curve"/>
      <point x="545" y="875"/>
      <point x="715" y="800"/>
      <point x="915" y="687" type="curve"/>
      <point x="974" y="762" type="line"/>
      <point x="669" y="971"/>
      <point x="475" y="1038"/>
      <point x="321" y="1038" type="curve"/>
      <point x="131" y="1038"/>
      <point x="11" y="949"/>
      <point x="11" y="819" type="curve"/>
      <point x="11" y="756"/>
      <point x="39" y="701"/>
    </contour>
    <contour>
      <point x="70" y="23" type="line"/>
      <point x="202" y="-46" type="line"/>
      <point x="256" y="-19" type="line"/>
      <point x="256" y="486" type="line"/>
      <point x="136" y="568" type="line"/>
      <point x="70" y="599" type="line"/>
    </contour>
    <contour>
      <point x="-65" y="621" type="line"/>
      <point x="0" y="538" type="line"/>
      <point x="356" y="538" type="line"/>
      <point x="381" y="587" type="line"/>
      <point x="316" y="670" type="line"/>
      <point x="-40" y="670" type="line"/>
    </contour>
    <contour>
      <point x="975" y="762" type="move" name="abvmTOP"/>
    </contour>
  </outline>
</glyph>
<glyph name="dvMatraI.9" format="1">
  <advance width="316"/>
  <outline>
    <contour>
      <point x="92" y="651" type="curve"/>
      <point x="198" y="651" type="line"/>
      <point x="185" y="675"/>
      <point x="179" y="695"/>
      <point x="179" y="717" type="curve"/>
      <point x="179" y="820"/>
      <point x="310" y="887"/>
      <point x="520" y="887" type="curve"/>
      <point x="740" y="887"/>
      <point x="1022" y="808"/>
      <point x="1332" y="691" type="curve"/>
      <point x="1383" y="772" type="line"/>
      <point x="915" y="982"/>
      <point x="624" y="1045"/>
      <point x="425" y="1045" type="curve"/>
      <point x="155" y="1045"/>
      <point x="18" y="945"/>
      <point x="18" y="811" type="curve"/>
      <point x="18" y="756"/>
      <point x="41" y="704"/>
    </contour>
    <contour>
      <point x="70" y="23" type="line"/>
      <point x="202" y="-46" type="line"/>
      <point x="256" y="-19" type="line"/>
      <point x="256" y="486" type="line"/>
      <point x="136" y="568" type="line"/>
      <point x="70" y="599" type="line"/>
    </contour>
    <contour>
      <point x="-65" y="621" type="line"/>
      <point x="0" y="538" type="line"/>
      <point x="356" y="538" type="line"/>
      <point x="381" y="587" type="line"/>
      <point x="316" y="670" type="line"/>
      <point x="-40" y="670" type="line"/>
    </contour>
    <contour>
      <point x="1383" y="772" type="move" name="abvmTOP"/>
    </contour>
  </outline>
</glyph>
<glyph name="dvMatraIi.1" format="1">
  <advance width="316"/>
  <outline>
    <contour>
      <point x="69" y="650" type="curve"/>
      <point x="194" y="660" type="line"/>
      <point x="103" y="862"/>
      <point x="-24" y="1051"/>
      <point x="-218" y="1051" type="curve"/>
      <point x="-349" y="1051"/>
      <point x="-432" y="966"/>
      <point x="-432" y="861" type="curve"/>
      <point x="-432" y="797"/>
      <point x="-401" y="728"/>
      <point x="-334" y="676" type="curve"/>
      <point x="-260" y="713" type="line"/>
      <point x="-274" y="736"/>
      <point x="-280" y="758"/>
      <point x="-280" y="778" type="curve"/>
      <point x="-280" y="830"/>
      <point x="-236" y="881"/>
      <point x="-166" y="881" type="curve"/>
      <point x="-84" y="881"/>
      <point x="-12" y="801"/>
    </contour>
    <contour>
      <point x="60" y="23" type="line"/>
      <point x="192" y="-46" type="line"/>
      <point x="246" y="-19" type="line"/>
      <point x="246" y="486" type="line"/>
      <point x="126" y="568" type="line"/>
      <point x="60" y="599" type="line"/>
    </contour>
    <contour>
      <point x="-65" y="621" type="line"/>
      <point x="0" y="538" type="line"/>
      <point x="356" y="538" type="line"/>
      <point x="381" y="587" type="line"/>
      <point x="316" y="670" type="line"/>
      <point x="-40" y="670" type="line"/>
    </contour>
    <contour>
      <point x="288" y="670" type="move" name="abvmBINDU"/>
    </contour>
    <contour>
      <point x="190" y="475" type="move" name="abvmTOP"/>
    </contour>
  </outline>
</glyph>
<glyph name="dvMatraIi_dvReph_dvAnusvara.2" format="1">
  <advance width="316"/>
  <outline>
    <contour>
      <point x="283" y="690" type="curve"/>
      <point x="311" y="709"/>
      <point x="342" y="748"/>
      <point x="355" y="781" type="curve"/>
      <point x="337" y="804"/>
      <point x="298" y="839"/>
      <point x="265" y="852" type="curve"/>
      <point x="235" y="836"/>
      <point x="207" y="797"/>
      <point x="190" y="761" type="curve"/>
      <point x="210" y="734"/>
      <point x="254" y="701"/>
    </contour>
    <component base="dvMatraIi_dvReph.2"/>
    <contour>
      <point x="288" y="600" type="move" name="abvmBINDU"/>
    </contour>
    <contour>
      <point x="210" y="475" type="move" name="abvmTOP"/>
    </contour>
  </outline>
</glyph>
<glyph name="dvMatraIi_dvReph_dvAnusvara" format="1">
  <advance width="316"/>
  <outline>
    <contour>
      <point x="273" y="690" type="curve"/>
      <point x="301" y="709"/>
      <point x="332" y="748"/>
      <point x="345" y="781" type="curve"/>
      <point x="327" y="804"/>
      <point x="288" y="839"/>
      <point x="255" y="852" type="curve"/>
      <point x="225" y="836"/>
      <point x="197" y="797"/>
      <point x="180" y="761" type="curve"/>
      <point x="200" y="734"/>
      <point x="244" y="701"/>
    </contour>
    <component base="dvMatraIi_dvReph"/>
    <contour>
      <point x="278" y="600" type="move" name="abvmBINDU"/>
    </contour>
    <contour>
      <point x="210" y="475" type="move" name="abvmTOP"/>
    </contour>
  </outline>
</glyph>
<glyph name="dvMatraO_dvReph_dvAnusvara" format="1">
  <advance width="316"/>
  <outline>
    <component base="dvMatraAa"/>
    <component base="dvMatraE_dvReph_dvAnusvara" xOffset="313"/>
    <contour>
      <point x="268" y="600" type="move" name="abvmBINDU"/>
    </contour>
  </outline>
</glyph>
<glyph name="dvMatraShortE_dvAnusvara" format="1">
  <advance width="0"/>
  <outline>
    <component base="dvMatraShortE"/>
    <component base="dvAnusvara" xOffset="11"/>
    <contour>
      <point x="-165" y="475" type="move" name="_abvmTOP"/>
    </contour>
  </outline>
</glyph>
<glyph name="dvNTSa" format="1">
  <advance width="1455"/>
  <outline>
    <component base="dvN"/>
    <component base="dvT.alt1" xOffset="292"/>
    <component base="dvSa" xOffset="646"/>
    <contour>
      <point x="1095" y="670" type="move" name="abvmBINDU"/>
    </contour>
    <contour>
      <point x="1135" y="670" type="move" name="abvmCANDRABINDU"/>
    </contour>
    <contour>
      <point x="1585" y="670" type="move" name="abvmCANDRABINDU2"/>
    </contour>
    <contour>
      <point x="1280" y="475" type="move" name="abvmTOP"/>
    </contour>
    <contour>
      <point x="1175" y="0" type="move" name="blwmBOTTOM"/>
    </contour>
  </outline>
</glyph>
<glyph name="dvNTYa" format="1">
  <advance width="1357"/>
  <outline>
    <component base="dvN"/>
    <component base="dvTYa" xOffset="329"/>
    <contour>
      <point x="1037" y="670" type="move" name="abvmBINDU"/>
    </contour>
    <contour>
      <point x="1067" y="670" type="move" name="abvmCANDRABINDU"/>
    </contour>
    <contour>
      <point x="1487" y="670" type="move" name="abvmCANDRABINDU2"/>
    </contour>
    <contour>
      <point x="1182" y="475" type="move" name="abvmTOP"/>
    </contour>
    <contour>
      <point x="1077" y="0" type="move" name="blwmBOTTOM"/>
    </contour>
  </outline>
</glyph>
<glyph name="dvPTYa" format="1">
  <advance width="1338"/>
  <outline>
    <component base="dvP"/>
    <component base="dvTYa" xOffset="310"/>
    <contour>
      <point x="1018" y="670" type="move" name="abvmBINDU"/>
    </contour>
    <contour>
      <point x="1048" y="670" type="move" name="abvmCANDRABINDU"/>
    </contour>
    <contour>
      <point x="1468" y="670" type="move" name="abvmCANDRABINDU2"/>
    </contour>
    <contour>
      <point x="1163" y="475" type="move" name="abvmTOP"/>
    </contour>
    <contour>
      <point x="1058" y="0" type="move" name="blwmBOTTOM"/>
    </contour>
  </outline>
</glyph>
<glyph name="dvRakar_dvMatraUu" format="1">
  <advance width="0"/>
  <outline>
    <component base="dvRakar.small"/>
    <component base="dvMatraUu.small" xOffset="246" yOffset="-280"/>
    <contour>
      <point x="1" y="0" type="move" name="_blwmBOTTOM"/>
    </contour>
  </outline>
</glyph>
<glyph name="dvReph_dvAnusvara" format="1">
  <advance width="0"/>
  <outline>
    <contour>
      <point x="-182" y="613" type="curve"/>
      <point x="-114" y="636" type="line"/>
      <point x="-167" y="691"/>
      <point x="-208" y="733"/>
      <point x="-208" y="790" type="curve"/>
      <point x="-208" y="853"/>
      <point x="-158" y="881"/>
      <point x="-106" y="881" type="curve"/>
      <point x="-82" y="881"/>
      <point x="-58" y="875"/>
      <point x="-37" y="865" type="curve"/>
      <point x="-12" y="951" type="line"/>
      <point x="-47" y="992"/>
      <point x="-110" y="1025"/>
      <point x="-178" y="1025" type="curve"/>
      <point x="-281" y="1025"/>
      <point x="-353" y="949"/>
      <point x="-353" y="862" type="curve"/>
      <point x="-353" y="773"/>
      <point x="-279" y="685"/>
    </contour>
    <contour>
      <point x="-95" y="698" type="curve"/>
      <point x="-67" y="717"/>
      <point x="-36" y="756"/>
      <point x="-23" y="789" type="curve"/>
      <point x="-41" y="812"/>
      <point x="-80" y="847"/>
      <point x="-113" y="860" type="curve"/>
      <point x="-143" y="844"/>
      <point x="-171" y="805"/>
      <point x="-188" y="769" type="curve"/>
      <point x="-168" y="742"/>
      <point x="-124" y="709"/>
    </contour>
    <contour>
      <point x="-183" y="475" type="move" name="_abvmTOP"/>
    </contour>
  </outline>
</glyph>
<glyph name="dvSThYa" format="1">
  <advance width="1626"/>
  <outline>
    <component base="dvS"/>
    <component base="dvTh" xOffset="506"/>
    <component base="dvYa" xOffset="945"/>
    <contour>
      <point x="1306" y="670" type="move" name="abvmBINDU"/>
    </contour>
    <contour>
      <point x="1336" y="670" type="move" name="abvmCANDRABINDU"/>
    </contour>
    <contour>
      <point x="1756" y="670" type="move" name="abvmCANDRABINDU2"/>
    </contour>
    <contour>
      <point x="1451" y="475" type="move" name="abvmTOP"/>
    </contour>
    <contour>
      <point x="1346" y="0" type="move" name="blwmBOTTOM"/>
    </contour>
  </outline>
</glyph>
<glyph name="dvSsMYa" format="1">
  <advance width="1410"/>
  <outline>
    <component base="dvSs"/>
    <component base="dvM" xOffset="344"/>
    <component base="dvYa" xOffset="729"/>
    <contour>
      <point x="1090" y="670" type="move" name="abvmBINDU"/>
    </contour>
    <contour>
      <point x="1120" y="670" type="move" name="abvmCANDRABINDU"/>
    </contour>
    <contour>
      <point x="1540" y="670" type="move" name="abvmCANDRABINDU2"/>
    </contour>
    <contour>
      <point x="1235" y="475" type="move" name="abvmTOP"/>
    </contour>
    <contour>
      <point x="1130" y="0" type="move" name="blwmBOTTOM"/>
    </contour>
  </outline>
</glyph>
<glyph name="dvTKSsa" format="1">
  <advance width="1220"/>
  <outline>
    <component base="dvT.alt1"/>
    <component base="dvKSsa" xOffset="369"/>
    <contour>
      <point x="1050" y="670" type="move" name="abvmBINDU"/>
    </contour>
    <contour>
      <point x="1030" y="670" type="move" name="abvmCANDRABINDU"/>
    </contour>
    <contour>
      <point x="1350" y="670" type="move" name="abvmCANDRABINDU2"/>
    </contour>
    <contour>
      <point x="1045" y="475" type="move" name="abvmTOP"/>
    </contour>
    <contour>
      <point x="771" y="-155" type="move" name="blwmBOTTOM"/>
    </contour>
  </outline>
</glyph>
<glyph name="dvTR" format="1">
  <advance width="430"/>
  <outline>
    <contour>
      <point x="425" y="222" type="line"/>
      <point x="493" y="217" type="line"/>
      <point x="493" y="298" type="line"/>
      <point x="355" y="426" type="line" smooth="yes"/>
      <point x="291" y="485"/>
      <point x="242" y="508"/>
      <point x="188" y="508" type="curve"/>
      <point x="127" y="508"/>
      <point x="74" y="479"/>
      <point x="-3" y="422" type="curve"/>
      <point x="110" y="249" type="line"/>
      <point x="197" y="310"/>
      <point x="239" y="340"/>
      <point x="274" y="340" type="curve"/>
      <point x="294" y="340"/>
      <point x="317" y="330"/>
      <point x="341" y="306" type="curve"/>
    </contour>
    <contour>
      <point x="92" y="158" type="line"/>
      <point x="220" y="8" type="line"/>
      <point x="493" y="217" type="line"/>
      <point x="350" y="326" type="line" smooth="yes"/>
    </contour>
    <contour>
      <point x="-65" y="621" type="line"/>
      <point x="0" y="538" type="line"/>
      <point x="545" y="538" type="line"/>
      <point x="570" y="587" type="line"/>
      <point x="505" y="670" type="line"/>
      <point x="-40" y="670" type="line"/>
    </contour>
  </outline>
</glyph>
<glyph name="dvTSNYa" format="1">
  <advance width="1804"/>
  <outline>
    <component base="dvT.alt1"/>
    <component base="dvS" xOffset="339"/>
    <component base="dvN.alt" xOffset="823"/>
    <component base="dvYa" xOffset="1123"/>
    <contour>
      <point x="1484" y="670" type="move" name="abvmBINDU"/>
    </contour>
    <contour>
      <point x="1514" y="670" type="move" name="abvmCANDRABINDU"/>
    </contour>
    <contour>
      <point x="1934" y="670" type="move" name="abvmCANDRABINDU2"/>
    </contour>
    <contour>
      <point x="1629" y="475" type="move" name="abvmTOP"/>
    </contour>
    <contour>
      <point x="1524" y="0" type="move" name="blwmBOTTOM"/>
    </contour>
  </outline>
</glyph>
<glyph name="dvYSha" format="1">
  <advance width="1193"/>
  <outline>
    <contour>
      <point x="355" y="63" type="curve"/>
      <point x="427" y="63"/>
      <point x="487" y="85"/>
      <point x="533" y="120" type="curve"/>
      <point x="439" y="271" type="line"/>
      <point x="385" y="213"/>
      <point x="310" y="193"/>
      <point x="238" y="197" type="curve"/>
      <point x="213" y="237"/>
      <point x="190" y="289"/>
      <point x="184" y="330" type="curve"/>
      <point x="15" y="336" type="line"/>
      <point x="94" y="150"/>
      <point x="228" y="63"/>
    </contour>
    <contour>
      <point x="15" y="336" type="line"/>
      <point x="120" y="229" type="line"/>
      <point x="292" y="237"/>
      <point x="361" y="307"/>
      <point x="361" y="387" type="curve"/>
      <point x="361" y="486"/>
      <point x="254" y="568"/>
      <point x="119" y="626" type="curve"/>
      <point x="40" y="586" type="line"/>
      <point x="142" y="544"/>
      <point x="188" y="502"/>
      <point x="188" y="465" type="curve"/>
      <point x="188" y="430"/>
      <point x="150" y="406"/>
      <point x="36" y="392" type="curve"/>
    </contour>
    <contour>
      <point x="-65" y="621" type="line"/>
      <point x="0" y="538" type="line"/>
      <point x="541" y="538" type="line"/>
      <point x="566" y="587" type="line"/>
      <point x="501" y="670" type="line"/>
      <point x="-40" y="670" type="line"/>
    </contour>
    <component base="dvSha" xOffset="336"/>
    <contour>
      <point x="862" y="670" type="move" name="abvmBINDU"/>
    </contour>
    <contour>
      <point x="852" y="670" type="move" name="abvmCANDRABINDU"/>
    </contour>
    <contour>
      <point x="1322" y="670" type="move" name="abvmCANDRABINDU2"/>
    </contour>
    <contour>
      <point x="1017" y="475" type="move" name="abvmTOP"/>
    </contour>
    <contour>
      <point x="913" y="-95" type="move" name="blwmBOTTOM"/>
    </contour>
  </outline>
</glyph>
<glyph name="grAcute.case" format="1">
  <advance width="265"/>
  <outline>
    <contour>
      <point x="-20" y="429" type="line"/>
      <point x="49" y="403" type="line"/>
      <point x="160" y="604" type="line"/>
      <point x="156" y="642" type="line"/>
      <point x="132" y="661"/>
      <point x="73" y="683"/>
      <point x="29" y="675" type="curve"/>
    </contour>
    <contour>
      <point x="185" y="343" type="move" name="_left"/>
    </contour>
  </outline>
</glyph>
<glyph name="iotaadscript.case" format="1">
  <advance width="265"/>
  <outline>
    <contour>
      <point x="137" y="-222" type="curve"/>
      <point x="175" y="-222"/>
      <point x="212" y="-191"/>
      <point x="229" y="-152" type="curve"/>
      <point x="209" y="-119" type="line"/>
      <point x="118" y="-142" type="line"/>
      <point x="131" y="-164" type="line"/>
      <point x="206" y="-62" type="line"/>
      <point x="185" y="-28" type="line"/>
      <point x="116" y="-28"/>
      <point x="72" y="-33"/>
      <point x="37" y="-51" type="curve"/>
      <point x="44" y="-103" type="line" smooth="yes"/>
      <point x="54" y="-175"/>
      <point x="86" y="-222"/>
    </contour>
    <contour>
      <point x="111" y="0" type="move" name="_bottom"/>
    </contour>
  </outline>
</glyph>
<glyph name="lenisacute.case" format="1">
  <advance width="265"/>
  <outline>
    <contour>
      <point x="71" y="429" type="line"/>
      <point x="140" y="403" type="line"/>
      <point x="251" y="604" type="line"/>
      <point x="247" y="642" type="line"/>
      <point x="223" y="661"/>
      <point x="164" y="683"/>
      <point x="120" y="675" type="curve"/>
    </contour>
    <contour>
      <point x="-118" y="457" type="curve"/>
      <point x="-78" y="403" type="line"/>
      <point x="2" y="437"/>
      <point x="58" y="508"/>
      <point x="58" y="576" type="curve"/>
      <point x="58" y="616"/>
      <point x="35" y="662"/>
      <point x="-29" y="678" type="curve"/>
      <point x="-69" y="662"/>
      <point x="-103" y="622"/>
      <point x="-110" y="574" type="curve"/>
      <point x="-59" y="535" type="line"/>
      <point x="-60" y="509"/>
      <point x="-81" y="486"/>
    </contour>
    <contour>
      <point x="259" y="343" type="move" name="_left"/>
    </contour>
  </outline>
</glyph>
<glyph name="tonos.case" format="1">
  <advance width="265"/>
  <outline>
    <component base="tonos" xOffset="-97" yOffset="-128"/>
    <contour>
      <point x="185" y="343" type="move" name="_left"/>
    </contour>
  </outline>
</glyph>
